<?xml version="1.0" encoding="utf-8"?>
<!-- Generator: Adobe Illustrator 19.1.0, SVG Export Plug-In . SVG Version: 6.00 Build 0)  -->
<svg version="1.1" id="Layer_1" xmlns="http://www.w3.org/2000/svg" xmlns:xlink="http://www.w3.org/1999/xlink" x="0px" y="0px"
	 viewBox="0 0 430.3 512" enable-background="new 0 0 430.3 512" xml:space="preserve">
<g>
	<g>
		<path d="M33.3,374.4c0,9.1-7.5,16.4-16.8,16.4c-9.4,0-16.8-7.3-16.8-16.4c0-1.6,1.3-2.9,2.9-2.9s2.9,1.3,2.9,2.9
			c0,6,4.8,10.7,11.1,10.7c6.1,0,11.1-4.8,11.1-10.7v-22c0-5.7-4.9-11.4-11.4-13.4c-9.8-3-15.7-10.3-15.7-18.2v-7.9
			c0-8.7,7.3-15.7,16.1-15.7c9,0,16.1,7,16.1,15.7c0,1.6-1.3,2.9-2.9,2.9s-2.9-1.3-2.9-2.9c0-5.6-4.6-10-10.4-10
			c-5.7,0-10.4,4.4-10.4,10v7.9c0,5.6,4.7,10.7,11.7,12.7c9.2,3,15.5,10.5,15.5,18.9V374.4z"/>
		<path d="M61,390.8c-8.8,0-16.1-7-16.1-15.7v-62.2c0-8.7,7.3-15.7,16.1-15.7s16.1,7,16.1,15.7v62.2C77.1,383.8,69.8,390.8,61,390.8
			z M61,302.9c-5.7,0-10.4,4.4-10.4,10v62.2c0,5.6,4.7,10,10.4,10s10.4-4.4,10.4-10v-62.2C71.4,307.3,66.7,302.9,61,302.9z"/>
		<path d="M106,385.1c5.9,0,9.8-4.3,9.8-10.7v-73.1c0-1.6,1.3-2.9,2.9-2.9c1.6,0,2.9,1.3,2.9,2.9v73.1c0,9.9-6.2,16.4-15.5,16.4
			s-15.5-6.5-15.5-16.4v-73.1c0-1.6,1.3-2.9,2.9-2.9c1.6,0,2.9,1.3,2.9,2.9v73.1C96.2,380.8,100.1,385.1,106,385.1z"/>
		<path d="M165.2,301.3c0,1.6-1.3,2.9-2.9,2.9h-10.7v82.5c0,1.6-1.3,2.9-2.9,2.9c-1.6,0-2.9-1.3-2.9-2.9v-82.5h-10.7
			c-1.6,0-2.9-1.3-2.9-2.9s1.3-2.9,2.9-2.9h27.1C163.9,298.4,165.2,299.7,165.2,301.3z"/>
		<path d="M201.3,341.1v-39.8c0-1.6,1.3-2.9,2.9-2.9c1.6,0,2.9,1.3,2.9,2.9v85.3c0,1.6-1.3,2.9-2.9,2.9c-1.6,0-2.9-1.3-2.9-2.9
			v-39.8h-19.5v39.8c0,1.6-1.3,2.9-2.9,2.9s-2.9-1.3-2.9-2.9v-85.3c0-1.6,1.3-2.9,2.9-2.9s2.9,1.3,2.9,2.9v39.8H201.3z"/>
		<path d="M250.8,301.3c0,1.6-1.3,2.9-2.9,2.9h-10.7v82.5c0,1.6-1.3,2.9-2.9,2.9s-2.9-1.3-2.9-2.9v-82.5h-10.7
			c-1.6,0-2.9-1.3-2.9-2.9s1.3-2.9,2.9-2.9H248C249.5,298.4,250.8,299.7,250.8,301.3z"/>
		<path d="M276.6,390.8c-8.8,0-16.1-7-16.1-15.7v-62.2c0-8.7,7.3-15.7,16.1-15.7s16.1,7,16.1,15.7v62.2
			C292.7,383.8,285.4,390.8,276.6,390.8z M276.6,302.9c-5.7,0-10.4,4.4-10.4,10v62.2c0,5.6,4.7,10,10.4,10c5.7,0,10.4-4.4,10.4-10
			v-62.2C287,307.3,282.3,302.9,276.6,302.9z"/>
		<path d="M339.4,301.3v85.3c0,1.6-1.3,2.9-2.9,2.9c-1.3,0-2.3-0.9-2.7-2.1l-11.1-34.9l-11.1,34.9c-0.4,1.2-1.4,2.1-2.7,2.1
			c-1.6,0-2.9-1.3-2.9-2.9v-85.3c0-1.6,1.3-2.9,2.9-2.9s2.9,1.3,2.9,2.9v67.5l8.1-25.4c0.5-1.8,1.7-2.3,2.9-2.3
			c1.2,0,2.3,0.5,2.9,2.3l8.1,25.4v-67.5c0-1.6,1.3-2.9,2.9-2.9S339.4,299.7,339.4,301.3z"/>
		<path d="M385.2,301.3v85.3c0,1.6-1.3,2.9-2.9,2.9c-1.3,0-2.3-0.8-2.7-2L358.7,320v66.6c0,1.6-1.3,2.9-2.9,2.9s-2.9-1.3-2.9-2.9
			v-85.3c0-1.6,1.3-2.9,2.9-2.9c1.3,0,2.3,0.8,2.7,2l20.9,67.5v-66.6c0-1.6,1.3-2.9,2.9-2.9C383.9,298.4,385.2,299.7,385.2,301.3z"
			/>
		<path d="M430.3,374.4c0,9.1-7.5,16.4-16.8,16.4c-9.4,0-16.8-7.3-16.8-16.4c0-1.6,1.3-2.9,2.9-2.9c1.6,0,2.9,1.3,2.9,2.9
			c0,6,4.8,10.7,11.1,10.7c6.1,0,11.1-4.8,11.1-10.7v-22c0-5.7-4.9-11.4-11.4-13.4c-9.8-3-15.7-10.3-15.7-18.2v-7.9
			c0-8.7,7.3-15.7,16.1-15.7c9,0,16.1,7,16.1,15.7c0,1.6-1.3,2.9-2.9,2.9s-2.9-1.3-2.9-2.9c0-5.6-4.6-10-10.4-10
			c-5.7,0-10.4,4.4-10.4,10v7.9c0,5.6,4.7,10.7,11.7,12.7c9.2,3,15.5,10.5,15.5,18.9V374.4z"/>
		<path d="M32.7,496.3c0,8.7-7.2,15.7-16.1,15.7c-8.8,0-16.1-7-16.1-15.7v-62.2c0-8.7,7.3-15.7,16.1-15.7c9,0,16.1,7,16.1,15.7
			c0,1.6-1.3,2.9-2.9,2.9s-2.9-1.3-2.9-2.9c0-5.6-4.6-10-10.4-10c-5.7,0-10.4,4.4-10.4,10v62.2c0,5.6,4.7,10,10.4,10
			c5.9,0,10.4-4.4,10.4-10c0-1.6,1.3-2.9,2.9-2.9S32.7,494.7,32.7,496.3z"/>
		<path d="M48,510.7c-1.6,0-2.9-1.3-2.9-2.9v-73.1c0-9.1,7.3-16.4,15.5-16.4s15.5,7.3,15.5,16.4v73.1c0,1.6-1.3,2.9-2.9,2.9
			c-1.6,0-2.9-1.3-2.9-2.9v-39.8H50.9v39.8C50.9,509.4,49.6,510.7,48,510.7z M70.4,434.8c0-6.1-4.3-10.7-9.8-10.7s-9.8,4.6-9.8,10.7
			v27.6h19.5V434.8z"/>
		<path d="M92.5,510.7c-1.6,0-2.9-1.3-2.9-2.9v-85.3c0-1.6,1.3-2.9,2.9-2.9h17.4c8.1,0,14.8,6.9,14.8,15.2c0,4.9-2.3,9.4-6.8,12.2
			c4.4,2.6,6.8,6.9,6.8,11.8v48.9c0,1.6-1.3,2.9-2.9,2.9c-1.6,0-2.9-1.3-2.9-2.9V459c-0.1-4.9-3.9-8.8-9.1-8.8H95.3v57.8
			C95.3,509.4,94,510.7,92.5,510.7z M95.3,444.4h14.6c4.9,0,9.1-4.3,9.1-9.5c0-5.2-4.2-9.5-9.1-9.5H95.3V444.4z"/>
		<path d="M143.8,489.2v11.3c0,2.5,2.2,4.6,4.7,4.6h9.4c1.6,0,2.9,1.3,2.9,2.9s-1.3,2.9-2.9,2.9h-9.4c-5.7,0-10.4-4.6-10.4-10.3V430
			c0-5.7,4.7-10.3,10.4-10.3h9.4c1.6,0,2.9,1.3,2.9,2.9s-1.3,2.9-2.9,2.9h-9.4c-2.5,0-4.7,2.1-4.7,4.6v53.5h14
			c1.6,0,2.9,1.3,2.9,2.9s-1.3,2.9-2.9,2.9H143.8z"/>
		<path d="M225.6,496.3c0,8.7-7.2,15.7-16.1,15.7c-8.8,0-16.1-7-16.1-15.7v-62.2c0-8.7,7.3-15.7,16.1-15.7c9,0,16.1,7,16.1,15.7
			c0,1.6-1.3,2.9-2.9,2.9c-1.6,0-2.9-1.3-2.9-2.9c0-5.6-4.6-10-10.4-10c-5.7,0-10.4,4.4-10.4,10v62.2c0,5.6,4.7,10,10.4,10
			c5.9,0,10.4-4.4,10.4-10c0-1.6,1.3-2.9,2.9-2.9C224.3,493.4,225.6,494.7,225.6,496.3z"/>
		<path d="M243.8,489.2v11.3c0,2.5,2.2,4.6,4.7,4.6h9.4c1.6,0,2.9,1.3,2.9,2.9s-1.3,2.9-2.9,2.9h-9.4c-5.7,0-10.4-4.6-10.4-10.3V430
			c0-5.7,4.7-10.3,10.4-10.3h9.4c1.6,0,2.9,1.3,2.9,2.9s-1.3,2.9-2.9,2.9h-9.4c-2.5,0-4.7,2.1-4.7,4.6v53.5h14
			c1.6,0,2.9,1.3,2.9,2.9s-1.3,2.9-2.9,2.9H243.8z"/>
		<path d="M305.6,422.5v85.3c0,1.6-1.3,2.9-2.9,2.9c-1.3,0-2.3-0.8-2.7-2l-20.9-67.5v66.6c0,1.6-1.3,2.9-2.9,2.9s-2.9-1.3-2.9-2.9
			v-85.3c0-1.6,1.3-2.9,2.9-2.9c1.3,0,2.3,0.8,2.7,2l20.9,67.5v-66.6c0-1.6,1.3-2.9,2.9-2.9S305.6,421,305.6,422.5z"/>
		<path d="M349.4,422.5c0,1.6-1.3,2.9-2.9,2.9h-10.7v82.5c0,1.6-1.3,2.9-2.9,2.9c-1.6,0-2.9-1.3-2.9-2.9v-82.5h-10.7
			c-1.6,0-2.9-1.3-2.9-2.9s1.3-2.9,2.9-2.9h27.1C348.1,419.7,349.4,421,349.4,422.5z"/>
		<path d="M365.4,489.2v11.3c0,2.5,2.2,4.6,4.7,4.6h9.4c1.6,0,2.9,1.3,2.9,2.9s-1.3,2.9-2.9,2.9h-9.4c-5.7,0-10.4-4.6-10.4-10.3V430
			c0-5.7,4.7-10.3,10.4-10.3h9.4c1.6,0,2.9,1.3,2.9,2.9s-1.3,2.9-2.9,2.9h-9.4c-2.5,0-4.7,2.1-4.7,4.6v53.5h14
			c1.6,0,2.9,1.3,2.9,2.9s-1.3,2.9-2.9,2.9H365.4z"/>
		<path d="M397.8,510.7c-1.6,0-2.9-1.3-2.9-2.9v-85.3c0-1.6,1.3-2.9,2.9-2.9h17.4c8.1,0,14.8,6.9,14.8,15.2c0,4.9-2.3,9.4-6.8,12.2
			c4.4,2.6,6.8,6.9,6.8,11.8v48.9c0,1.6-1.3,2.9-2.9,2.9s-2.9-1.3-2.9-2.9V459c-0.1-4.9-3.9-8.8-9.1-8.8h-14.6v57.8
			C400.7,509.4,399.4,510.7,397.8,510.7z M400.7,444.4h14.6c4.9,0,9.1-4.3,9.1-9.5c0-5.2-4.2-9.5-9.1-9.5h-14.6V444.4z"/>
	</g>
</g>
<g>
	<g>
		<rect x="258" y="52" width="29" height="161"/>
		<rect x="143" y="52" width="29" height="161"/>
	</g>
	<path d="M401.3,28.2v208.1H28.8V28.2H401.3 M430-0.5H0.1v265.4H430V-0.5L430-0.5z"/>
</g>
</svg>
