<?xml version="1.0" encoding="utf-8"?>
<!-- Generator: Adobe Illustrator 19.1.0, SVG Export Plug-In . SVG Version: 6.00 Build 0)  -->
<svg version="1.1" id="Layer_1" xmlns="http://www.w3.org/2000/svg" xmlns:xlink="http://www.w3.org/1999/xlink" x="0px" y="0px"
	 viewBox="0 0 560.8 574.3" enable-background="new 0 0 560.8 574.3" xml:space="preserve">
<g>
	<path fill-rule="evenodd" clip-rule="evenodd" d="M347.4,18.4c-0.1,64.6-0.2,129.3-0.2,193.9c-4.7,0.9-9.4,1.8-14.2,2.6
		c0-64.7,0-129.4,0-194.2c-9,1.4-18.1,2.7-27.1,4.1c-6,0.9-9.1-5.6-6.2-10.3c3.1-5.2,10.3-4.4,17.3-5.8c14.8-2.3,29.6-4.6,44.4-7
		c5.5-1.1,16.1-3.8,19.2,0.5C389.8,15.3,356,17.9,347.4,18.4z"/>
	<path fill-rule="evenodd" clip-rule="evenodd" d="M288.8,222.7c-4.8,0.7-9.6,1.4-14.4,2.2c0-29,0-58.1,0-87.1
		c-16.5,2.5-33,5-49.4,7.4c0,28.5,0,57,0,85.4c-4.9,0.5-9.8,1-14.6,1.4c0-52.6,0-105.3,0-157.9c0.1-14.6,0.2-29.3,0.2-43.9
		c0.7-2.6,3.1-5.4,5.5-6.2c11.8-4.2,8.9,14.7,8.9,23.5c0,27.8,0,55.5,0,83.3c16.5-2.5,33-5,49.4-7.4c0-28.2,0-56.5,0-84.7
		c0-10.1-2.1-28,10.1-24.5c5,1.5,4.3,7.2,4.3,13.7c0,12,0,24,0,36C288.8,116.7,288.8,169.7,288.8,222.7z"/>
	<path fill-rule="evenodd" clip-rule="evenodd" d="M158.3,29.5c18.1-0.3,29.3,8.4,34.1,21.4c2,5.3,4.4,15.6-0.7,19.4
		c-12.1,9.1-11-10.7-14.4-16.3c-5.8-9.6-22.4-12.8-33.8-6c-18.2,10.8-15.8,27.5-15.8,55.7c0,30,0,60,0,90c0,14.9-1.8,33.8,1.4,46.3
		c-5,0.5-10.1,1-15.1,1.4c-1.8-12.9-0.7-29.1-0.7-43.2c0-27,0-53.9,0-80.9c0-19-2.6-44.3,3.4-58.1c5.3-12.3,15.5-22,28.1-26.9
		C148.7,30.7,153.7,31.2,158.3,29.5z"/>
	<path fill-rule="evenodd" clip-rule="evenodd" d="M97.6,242.8c-4.8,0.5-9.6,1-14.4,1.4c0-51.1,0-102.2,0-153.4
		c0-13.8,0-27.7,0-41.5c0.7-2.9,3.6-5.8,6.5-6.5c3.7-0.9,6.6,1.5,7.4,3.6c1.1,2.8,0.5,7.9,0.5,11.5c0,10.2,0,20.5,0,30.7
		C97.6,140.1,97.6,191.5,97.6,242.8z"/>
	<path fill-rule="evenodd" clip-rule="evenodd" d="M68.8,262.7c0.1,1.8,0.2,3.7,0.2,5.5c-4.6-2.6-12,4.9-15.1,7
		c-2.3,1.7-4.6,3.4-7,5c-3.1,0.4-6.2,0.8-9.4,1.2c-12,2.3-25.3,3.3-31.9-5c-7.7-9.8-5.3-32.1-5.3-49.4c0-40.2,0-80.3,0-120.5
		c0-14.8,0-29.6,0-44.4c0.7-2.9,3.1-5.6,5.8-6.5c4-1.4,7.5,1.2,8.4,3.8c0.1,14.3,0.2,28.6,0.2,43c0,37.8,0,75.5,0,113.3
		c0,11.4,0,22.7,0,34.1c0,4.3-0.7,10.2,0.7,13.4c2.3,5.3,8.8,6.4,15.8,5C43.8,266.4,56.3,264.6,68.8,262.7z"/>
	<path fill-rule="evenodd" clip-rule="evenodd" d="M187.6,136.3c9.3,0,7.2,9.7,7.2,18.7c0,18.6,0,37.3,0,55.9
		c0,5.9,0.7,20.6-2.4,22.8c-4.9,0.5-9.8,1-14.6,1.4c3.1-7.6,2.6-19.2,2.6-30.2c0-17.7,0-35.4,0-53c-6.7,1-29.8,7.9-27.4-4.3
		C155.4,135.6,177.2,140.5,187.6,136.3z"/>
	<path fill-rule="evenodd" clip-rule="evenodd" d="M478,208c11.4,3.7,20.4,8.9,29.5,14.6c2.9,1.8,5.8,3.7,8.6,5.5
		c-0.1,4.8-3.4,8.5-5.3,11.8c-3.4,5.8-6.4,11.6-9.1,18c-1,2.3-2.9,5.3-2.2,9.1c2.2,11.7,6.9,22.2,11,32.6c1.3,3.4,5.3,10.2,4.3,14.2
		c-1.9,2.7-6.4,3.8-9.4,5.5c-9.8,5.7-21.3,10.5-32.9,14.2c-4.2,1.3-12.3,4.3-15.8,1.9c-1.1-3.3-3.2-14.6,0.5-16.8
		c4.4-1.9,17.6-1,19.9-4.3c2.3-3.6,0.7-23,0.7-29C478,259.5,478,233.8,478,208z"/>
	<path fill-rule="evenodd" clip-rule="evenodd" d="M472.9,222.9c-1.3-8.3,3.8-26.7,1-31.9c-0.9-2-2.5-2.3-5-2.6
		c-21.8,5-43.7,9.9-65.5,14.9c-43.6,10.9-89.4,16.9-135.8,25.4c-28,3-56,5.9-84,8.9c-27.8,2.6-55.7,5.3-83.5,7.9
		c-6.3,1-25.3,0.4-27.8,4.1c-3,4.3,0.7,27.7,0.2,35.8c-1.7,27-2,56.5-1.9,85.7c5.1,3,17.8,1.6,24.5,0.5c20.5-1.6,41-3.2,61.4-4.8
		c22.9-2.4,45.8-4.8,68.6-7.2c14.9-2,29.8-4,44.6-6c40.6-8,81.4-12.7,120-22.3c21.3-5.3,42.6-8.9,63.4-14.2c5.7-1.4,19.6-3,21.8-7.2
		c0.1-8.4,0.2-16.8,0.2-25.2C475.1,263.9,475.8,241.7,472.9,222.9z M212.5,290.3c-3,0.4-5.9,0.8-8.9,1.2c0-2.9,0-5.8,0-8.6
		c-10.9,1.6-21.8,3.2-32.6,4.8c0,9.9,0,19.8,0,29.8c5.8-0.9,11.7-1.8,17.5-2.6c0,3,0,5.9,0,8.9c-14.8,2.2-29.6,4.3-44.4,6.5
		c0-2.9,0-5.8,0-8.6c6-0.9,12-1.8,18-2.6c0-9.9,0-19.8,0-29.8c-10.9,1.6-21.8,3.2-32.6,4.8c0,3,0,5.9,0,8.9c-3,0.4-5.9,0.8-8.9,1.2
		c0-5.8,0-11.7,0-17.5c30.4-4.6,60.8-9.3,91.2-13.9c0.2,0.1,0.5,0.2,0.7,0.2C212.5,278.7,212.5,284.5,212.5,290.3z M320.8,264.9
		c-5.8,0.9-11.5,1.8-17.3,2.6c0,9.9,0,19.8,0,29.8c5.8-0.8,11.5-1.6,17.3-2.4c0,2.9,0,5.8,0,8.6c-14.6,2.2-29.3,4.3-43.9,6.5
		c0-2.9,0-5.8,0-8.6c5.8-0.8,11.5-1.6,17.3-2.4c0-4.3,0-8.6,0-13c-16.2,2.4-32.5,4.8-48.7,7.2c0,4.3,0,8.6,0,13
		c5.8-0.9,11.7-1.8,17.5-2.6c0,2.9,0,5.8,0,8.6c-14.7,2.2-29.4,4.5-44.2,6.7c0-2.9,0-5.8,0-8.6c5.8-0.9,11.7-1.8,17.5-2.6
		c0-9.9,0-19.8,0-29.8c-5.8,0.8-11.7,1.6-17.5,2.4c0-2.8,0-5.6,0-8.4c14.7-2.2,29.4-4.5,44.2-6.7c0,2.9,0,5.8,0,8.6
		c-5.7,0.9-11.4,1.8-17,2.6c-0.2,0-0.3,0-0.5,0c0,3,0,5.9,0,8.9c16.2-2.4,32.3-4.8,48.5-7.2c0.1-3,0.2-6.1,0.2-9.1
		c-5.8,0.9-11.5,1.8-17.3,2.6c0-2.9,0-5.8,0-8.6c14.6-2.2,29.1-4.5,43.7-6.7c0.1,0,0.2,0,0.2,0C320.8,259.1,320.8,262,320.8,264.9z
		 M422.5,288.2c-31.4,4.7-62.9,9.4-94.3,14.2c0-3,0-5.9,0-8.9c5.8-0.9,11.7-1.8,17.5-2.6c0-9.8,0-19.5,0-29.3
		c-5.8,0.9-11.5,1.8-17.3,2.6c-0.1,0-0.2,0-0.2,0c0-3,0-5.9,0-8.9c31.4-4.7,62.7-9.4,94.1-14.2c0,6.3,0,12.6,0,19
		c-2.9,0.5-5.8,1-8.6,1.4c0-3.4,0-6.9,0-10.3c-19.6,3-39.2,5.9-58.8,8.9c0,3,0,5.9,0,8.9c9.9-1.4,19.8-2.9,29.8-4.3
		c0-1.8,0-3.5,0-5.3c3-0.4,5.9-0.8,8.9-1.2c0,6.3,0,12.6,0,19c-2.9,0.5-5.8,1-8.6,1.4c-0.1,0-0.2,0-0.2,0c0-1.7,0-3.4,0-5
		c-9.9,1.4-19.8,2.9-29.8,4.3c0,3.8,0,7.7,0,11.5c19.6-3,39.2-5.9,58.8-8.9c0-3.4,0-6.7,0-10.1c3-0.5,5.9-1,8.9-1.4
		C422.5,275.4,422.5,281.8,422.5,288.2z"/>
	<path fill-rule="evenodd" clip-rule="evenodd" d="M66.6,270.2c1.5,1.5,0.5,20.1,0.5,25c0.1,26.6,0.2,53.3,0.2,79.9
		c2,3.3,16.6-0.3,20.4-0.7c0.1,0.2,0.2,0.3,0.2,0.5c1.3,5.8,1,14.1-1.7,18c-20,4.2-43.9-0.5-59.8-4.8c1-6.5,5.1-11.7,7.4-17
		c3.4-7.4,6.7-14.9,10.1-22.3c1.7-4,5.8-9.9,4.6-16.1c-2.3-11-22.1-21.5-22.6-30.5c7.4-5.5,13.4-13.1,20.9-18.7
		C53.1,278.7,60.7,275.2,66.6,270.2z"/>
	<path fill-rule="evenodd" clip-rule="evenodd" d="M526.5,304c0,55.5,0,111,0,166.6c0,11,0,22.1,0,33.1c0,4.2,0.6,9.9-0.7,13
		c-1.1,2.4-4,4.8-7.2,5c-2.8,0.3-5.5-1.9-6.2-3.8c-0.1-14.3-0.2-28.6-0.2-43c0-51.9,0-103.8,0-155.8c11.6-5.7,1-17.7-1.2-27.1
		c12-1.8,24-3.7,36-5.5c4.7-0.9,10.6-1.8,13,1.7c2.8,4.2-1,9.9-4.1,11.3C546,301,536.2,302.5,526.5,304z"/>
	<path fill-rule="evenodd" clip-rule="evenodd" d="M403.6,330.9c1.3,1.4,0.5,18.4,0.5,21.8c0,21.2,0,42.4,0,63.6
		c16.5-2.5,33-5,49.4-7.4c0.1-24.9,0.2-49.8,0.2-74.6c0.8,7.4,8.8,4.2,14.2,3.4c0,61.9,0,123.8,0,185.8c-2,5.5-11.3,11.6-14.2,2.9
		c-0.1-34.3-0.2-68.6-0.2-103c-16.5,2.5-33,5-49.4,7.4c0,28.4,0,56.8,0,85.2c0,9.9,1.4,28.7-10.8,23.8c-1.5-0.6-3.2-2.4-3.6-4.1
		c0-13.8,0-27.5,0-41.3c0-39.8,0-79.5,0-119.3c0-10.1,0-20.2,0-30.2c0-2.7-0.9-9.2,0.5-10.8C394.6,333,399.1,331.9,403.6,330.9z"/>
	<path fill-rule="evenodd" clip-rule="evenodd" d="M371.6,337.6c4.9,4.2,2.5,21.3-6.5,20.2c-6.5-0.8-6.5-11.3-8.2-17
		c0.2,0,0.3,0,0.5,0C362.2,339.7,366.9,338.7,371.6,337.6z"/>
	<path fill-rule="evenodd" clip-rule="evenodd" d="M307.1,349.9c0.4,0,0.8,0,1.2,0c-2.6,14.2-1.7,34.1-1.7,50.9
		c0,28.7,0,57.4,0,86.2c0,21.1-3.3,40.8,10.3,49c9,5.4,22.2,2,29-2.6c5.9-4,10.5-9.6,12.7-17.3c2-6.9,0.7-17.7,0.7-25.9
		c0-17.5,0-35,0-52.6c-0.1,0-0.2,0-0.2,0c-6.7,2-30.9,7.4-26.9-5.3c2.7-8.6,20.4-7.8,29.8-9.6c4.9-1,10-1,11.5,3.1
		c0.1,14.5,0.2,29,0.2,43.4c0,39.8,2.9,60.6-22.3,76.6c-6.4,4.1-16.4,9.6-28.1,7.7c-14.3-2.3-24.1-8.9-28.8-20.6
		c-3.9-9.6-2.4-26-2.4-39.1c0-26.2,0-52.3,0-78.5c0-15.1,0-30.2,0-45.4c0-4-0.7-15.1,1-17.3C297.8,351.6,302.5,350.7,307.1,349.9z"
		/>
	<path fill-rule="evenodd" clip-rule="evenodd" d="M276.6,355.1c0,51.9,0,103.8,0,155.8c0,10.4,0,20.8,0,31.2
		c0,3.7,0.7,8.9-0.5,11.8c-1,2.6-3.7,5-6.7,5.5c-3.4,0.6-6.2-1.8-7-3.8c-0.1-14.2-0.2-28.5-0.2-42.7c0-51.9,0-103.8,0-155.8
		C267,356.4,271.8,355.8,276.6,355.1z"/>
	<path fill-rule="evenodd" clip-rule="evenodd" d="M245.9,359.5c0,51.7,0,103.4,0,155c-0.1,14.6-0.2,29.1-0.2,43.7
		c-0.9,2.4-3.3,4.7-5.8,5.5c-7.2,2.2-8.2-4.6-9.6-9.1c-3-9.3-6.1-18.6-9.1-27.8c-14.1-43.2-28.2-86.4-42.2-129.6c-0.1,0-0.2,0-0.2,0
		c0,45.6,0,91.2,0,136.8c0,11.7,4.3,43.6-9.8,40.1c-5.1-1.3-4.6-7-4.6-13.4c0-11.8,0-23.5,0-35.3c0-52.2,0-104.5,0-156.7
		c6.9-0.6,13.8-1.1,20.6-1.7c15.4,47.7,30.9,95.4,46.3,143c0.1,0,0.2,0,0.2,0c0.1-49.6,0.2-99.2,0.2-148.8
		C236.4,360.6,241.2,360,245.9,359.5z"/>
</g>
</svg>
