<?xml version="1.0" encoding="UTF-8"?><!DOCTYPE svg PUBLIC "-//W3C//DTD SVG 1.1//EN" "http://www.w3.org/Graphics/SVG/1.1/DTD/svg11.dtd"><svg xmlns="http://www.w3.org/2000/svg"><defs/><symbol id="logo-tall" viewBox="0 0 215.1 256"><title>logo-tall</title><path d="M17.6 186.7c0 4.5-3.7 8.2-8.3 8.1-4.5.1-8.2-3.5-8.3-8v-.1c0-.8.6-1.4 1.4-1.4.8 0 1.4.6 1.4 1.4 0 2.9 2.4 5.3 5.4 5.3h.1c3 .1 5.4-2.3 5.5-5.3v-10.9c0-2.8-2.4-5.6-5.6-6.6-4.9-1.5-7.8-5.1-7.8-9v-3.9c.1-4.3 3.6-7.8 7.9-7.8 4.3-.1 7.9 3.4 7.9 7.7 0 .8-.6 1.4-1.4 1.4-.8 0-1.4-.6-1.4-1.4 0-2.8-2.3-5-5.1-5h-.1c-2.8-.1-5.1 2.2-5.1 4.9v3.9c0 2.8 2.3 5.3 5.8 6.3 4.6 1.5 7.7 5.2 7.7 9.4v11zM31.4 194.8c-4.3 0-7.8-3.5-7.9-7.8v-30.8c0-4.4 3.6-8 8-8s8 3.6 8 8V187c-.2 4.4-3.8 7.8-8.1 7.8zm0-43.6c-2.8-.1-5.1 2.2-5.1 4.9V187c.1 2.8 2.5 5 5.4 4.9 2.7-.1 4.8-2.3 4.9-4.9v-30.8c-.1-2.8-2.4-5-5.2-5zM53.6 192c2.9 0 4.9-2.1 4.9-5.3v-36.2c0-.8.6-1.4 1.4-1.4s1.4.6 1.4 1.4v36.2c0 4.9-3.1 8.1-7.7 8.1s-7.7-3.2-7.7-8.1v-36.2c0-.8.6-1.4 1.4-1.4s1.4.6 1.4 1.4v36.2c.1 3.1 2 5.3 4.9 5.3zM83 150.5c0 .8-.6 1.4-1.4 1.4h-5.3v40.9c0 .8-.6 1.4-1.4 1.4-.8 0-1.4-.6-1.4-1.4v-40.9H68c-.8 0-1.4-.6-1.4-1.4 0-.8.6-1.4 1.4-1.4h13.4c.9-.1 1.5.5 1.6 1.4 0-.1 0-.1 0 0zM100.8 170.2v-19.7c0-.8.6-1.4 1.4-1.4.8 0 1.4.6 1.4 1.4v42.2c0 .8-.6 1.4-1.4 1.4-.8 0-1.4-.6-1.4-1.4V173h-9.6v19.7c0 .8-.6 1.4-1.4 1.4-.8 0-1.4-.6-1.4-1.4v-42.2c0-.8.6-1.4 1.4-1.4.8 0 1.4.6 1.4 1.4v19.7h9.6zM125.4 150.5c0 .8-.6 1.4-1.4 1.4h-5.3v40.9c0 .8-.6 1.4-1.4 1.4-.8 0-1.4-.6-1.4-1.4v-40.9h-5.3c-.8 0-1.4-.6-1.4-1.4 0-.8.6-1.4 1.4-1.4h13.5c.6-.1 1.3.6 1.3 1.4zM138.1 194.8c-4.3 0-7.8-3.5-7.9-7.8v-30.8c0-4.4 3.6-8 8-8s8 3.6 8 8V187c-.2 4.4-3.7 7.8-8.1 7.8zm0-43.6c-2.8-.1-5.1 2.2-5.1 4.9V187c.1 2.8 2.5 5 5.4 4.9 2.7-.1 4.8-2.3 4.9-4.9v-30.8c-.1-2.8-2.4-5-5.2-5zM169.2 150.5v42.2c0 .8-.6 1.4-1.3 1.5-.7 0-1.3-.4-1.4-1.1l-5.5-17.3-5.5 17.3c-.2.8-.9 1.2-1.7 1-.7-.2-1.1-.8-1.1-1.4v-42.2c0-.8.6-1.4 1.4-1.4s1.4.6 1.4 1.4v33.4l4-12.6c.1-.7.7-1.2 1.4-1.1.7 0 1.3.5 1.4 1.1l4 12.6v-33.4c0-.8.6-1.4 1.4-1.4.7 0 1.4.5 1.4 1.3.1 0 .1 0 .1.1zM191.9 150.5v42.2c0 .8-.6 1.4-1.4 1.4-.6 0-1.2-.4-1.3-1l-10.4-33.4v33c0 .8-.6 1.4-1.4 1.4-.8 0-1.4-.6-1.4-1.4v-42.2c0-.8.6-1.4 1.4-1.4.6 0 1.2.4 1.3 1l10.4 33.4v-33c0-.8.6-1.4 1.4-1.4.8-.1 1.4.6 1.4 1.4zM214.2 186.7c0 4.6-3.7 8.3-8.3 8.3-4.6 0-8.3-3.7-8.3-8.3 0-.8.6-1.4 1.4-1.4.8 0 1.4.6 1.4 1.4 0 2.9 2.4 5.3 5.4 5.3h.1c3 0 5.4-2.3 5.5-5.3v-10.9c0-2.8-2.4-5.6-5.6-6.6-4.9-1.5-7.8-5.1-7.8-9v-3.9c0-4.4 3.6-8 8-8s8 3.6 8 8c0 .8-.6 1.4-1.4 1.4-.8 0-1.4-.6-1.4-1.4-.1-2.8-2.5-5-5.4-4.9-2.7.1-4.8 2.3-4.9 4.9v3.9c0 2.8 2.3 5.3 5.8 6.3 4.6 1.5 7.7 5.2 7.7 9.4l-.2 10.8zM17.3 247c0 4.3-3.6 7.8-7.9 7.8-4.3 0-7.8-3.5-7.9-7.8v-30.8c.1-4.3 3.6-7.8 7.9-7.8 4.3-.1 7.9 3.4 7.9 7.7 0 .8-.6 1.4-1.4 1.4-.8 0-1.4-.6-1.4-1.4 0-2.8-2.3-5-5.1-5h-.1c-2.8-.1-5.1 2.2-5.1 4.9v31c0 2.8 2.3 5 5.1 5 2.7.1 5-2 5.1-4.8v-.2c0-.8.6-1.4 1.4-1.4.9 0 1.5.6 1.5 1.4zM24.9 254.2c-.8 0-1.4-.6-1.4-1.4v-36.2c-.1-4.3 3.3-7.9 7.7-8.1 4.3.2 7.7 3.8 7.7 8.1v36.2c0 .8-.6 1.4-1.4 1.4-.8 0-1.4-.6-1.4-1.4V233h-9.6v19.7c-.1.8-.8 1.5-1.6 1.5zM36 216.6c.2-2.7-1.8-5-4.5-5.2-2.7-.2-5 1.8-5.2 4.5v14.5H36v-13.8zM47 254.2c-.8 0-1.4-.6-1.4-1.4v-42.2c0-.8.6-1.4 1.4-1.4h8.6c4.1.1 7.3 3.4 7.3 7.5 0 2.5-1.3 4.8-3.4 6 2.1 1.2 3.4 3.4 3.4 5.8v24.2c0 .8-.6 1.4-1.4 1.4-.8 0-1.4-.6-1.4-1.4v-24.1c0-2.4-2-4.4-4.4-4.4H48.5v28.6c-.2.8-.8 1.3-1.5 1.4zm1.3-32.9h7.2c2.6-.1 4.6-2.3 4.5-4.9-.1-2.4-2.1-4.4-4.5-4.5h-7.2v9.4zM72.4 243.5v5.6c0 1.3 1.1 2.3 2.3 2.3h4.6c.8 0 1.4.6 1.4 1.4 0 .8-.6 1.4-1.4 1.4h-4.7c-2.8 0-5.1-2.3-5.1-5.1v-35c0-2.8 2.3-5.1 5.1-5.1h4.7c.8 0 1.4.6 1.4 1.4 0 .8-.6 1.4-1.4 1.4h-4.7c-1.3 0-2.3 1-2.3 2.3v26.5h6.9c.8 0 1.4.6 1.4 1.4 0 .8-.6 1.4-1.4 1.4l-6.8.1zM112.9 247c0 4.4-3.6 8-8 8s-8-3.6-8-8v-30.8c0-4.4 3.6-8 8-8s8 3.6 8 8c0 .8-.6 1.4-1.4 1.4-.8 0-1.4-.6-1.4-1.4-.1-2.8-2.5-5-5.4-4.9-2.7.1-4.8 2.3-4.9 4.9V247c0 2.8 2.3 5 5.1 5 2.7.1 5-2 5.1-4.8v-.2c0-.8.6-1.4 1.4-1.4.8 0 1.5.6 1.5 1.4zM121.9 243.5v5.6c0 1.3 1.1 2.3 2.3 2.3h4.7c.8 0 1.4.6 1.4 1.4 0 .8-.6 1.4-1.4 1.4h-4.7c-2.8 0-5.1-2.3-5.1-5.1v-35c0-2.8 2.3-5.1 5.1-5.1h4.7c.8 0 1.4.6 1.4 1.4 0 .8-.6 1.4-1.4 1.4h-4.7c-1.3 0-2.3 1-2.3 2.3v26.5h6.9c.8 0 1.4.6 1.4 1.4 0 .8-.6 1.4-1.4 1.4l-6.9.1zM152.5 210.5v42.2c0 .8-.6 1.4-1.4 1.4-.6 0-1.2-.4-1.3-1l-10.4-33.4v33c0 .8-.6 1.4-1.4 1.4-.8 0-1.4-.6-1.4-1.4v-42.2c0-.8.6-1.4 1.4-1.4.6 0 1.2.4 1.3 1l10.4 33.4v-33c0-.8.6-1.4 1.4-1.4.7 0 1.4.6 1.4 1.4zM174.2 210.5c0 .8-.6 1.4-1.4 1.4h-5.3v40.9c0 .8-.6 1.4-1.4 1.4-.8 0-1.4-.6-1.4-1.4v-40.9h-5.3c-.8 0-1.4-.6-1.4-1.4 0-.8.6-1.4 1.4-1.4h13.4c.7 0 1.3.6 1.4 1.4zM182.1 243.5v5.6c0 1.3 1.1 2.3 2.3 2.3h4.7c.8 0 1.4.6 1.4 1.4 0 .8-.6 1.4-1.4 1.4h-4.7c-2.8 0-5.1-2.3-5.1-5.1v-35c0-2.8 2.3-5.1 5.1-5.1h4.7c.8 0 1.4.6 1.4 1.4 0 .8-.6 1.4-1.4 1.4h-4.7c-1.3 0-2.3 1-2.3 2.3v26.5h6.9c.8 0 1.4.6 1.4 1.4 0 .8-.6 1.4-1.4 1.4h-6.9v.1zM198.2 254.2c-.8 0-1.4-.6-1.4-1.4v-42.2c0-.8.6-1.4 1.4-1.4h8.6c4.1.1 7.3 3.4 7.3 7.5 0 2.5-1.3 4.8-3.4 6 2.1 1.2 3.4 3.4 3.4 5.8v24.2c0 .8-.6 1.4-1.4 1.4-.8 0-1.4-.6-1.4-1.4v-24.1c0-2.4-2-4.4-4.4-4.4h-7.3v28.6c0 .7-.5 1.3-1.2 1.3l-.2.1zm1.4-32.9h7.2c2.6-.1 4.6-2.3 4.5-4.9-.1-2.4-2.1-4.4-4.5-4.5h-7.2v9.4zM128.9 27h14.4v79.7h-14.4zM72 27h14.4v79.7H72z"/><path d="M199.9 15.2v103H15.4v-103h184.5M214.1 1H1.2v131.4h212.9V1z"/></symbol><symbol id="logo-wide" viewBox="0 0 856 256"><title>logo-wide</title><path d="M474.8 99.1c-.2 8.9-7.6 15.9-16.5 15.7-8.6-.2-15.5-7.1-15.7-15.7 0-1.5 1.2-2.8 2.8-2.8 1.5 0 2.8 1.2 2.8 2.8 0 5.7 4.7 10.3 10.4 10.2h.2c5.7.1 10.4-4.5 10.6-10.2v-21c0-5.5-4.7-10.9-10.9-12.8-9.3-2.8-15-9.9-15-17.4v-7.6c.2-8.5 7.3-15.3 15.9-15.1 8.2.2 14.9 6.8 15.1 15.1 0 1.5-1.2 2.8-2.8 2.8-1.5 0-2.8-1.2-2.8-2.8 0-5.5-4.5-10-10-10s-10 4.5-10 10v7.6c0 5.3 4.4 10.2 11.2 12.2 8.8 2.8 14.9 10.1 14.9 18.1v21h-.2v-.1zM501.4 114.8c-8.5 0-15.5-6.8-15.5-15V40.2c.1-8.4 7-15.1 15.4-15h.1c8.5 0 15.5 6.8 15.5 15v59.5c-.2 8.5-7.1 15.2-15.5 15.1zm0-84.2c-5.4-.1-9.8 4.2-9.9 9.6v59.5c0 5.5 4.5 10 10 10s10-4.5 10-10V40.2c-.2-5.4-4.7-9.7-10.1-9.6zM544.5 109.3c5.6 0 9.3-4.1 9.3-10.2v-70c0-1.5 1.2-2.8 2.8-2.8 1.5 0 2.8 1.2 2.8 2.8v70c0 9.4-6 15.7-14.9 15.7s-14.9-6.2-14.9-15.7v-70c0-1.5 1.2-2.8 2.8-2.8s2.8 1.2 2.8 2.8v70c-.1 6.1 3.7 10.2 9.3 10.2zM601.1 29.1c0 1.5-1.2 2.8-2.8 2.8h-10.2v79c0 1.5-1.2 2.8-2.8 2.8-1.5 0-2.8-1.2-2.8-2.8v-79h-10.2c-1.5 0-2.8-1.2-2.8-2.8 0-1.5 1.2-2.8 2.8-2.8h25.9c1.6.1 2.9 1.3 2.9 2.8zM635.7 67.3V29.1c0-1.5 1.2-2.8 2.8-2.8s2.8 1.2 2.8 2.8v81.7c0 1.5-1.2 2.8-2.8 2.8-1.5 0-2.8-1.2-2.8-2.8v-38H617v38.1c0 1.5-1.2 2.8-2.8 2.8-1.5 0-2.8-1.2-2.8-2.8V29.1c0-1.5 1.2-2.8 2.8-2.8 1.5 0 2.8 1.2 2.8 2.8v38.1l18.7.1zM683.1 29.1c0 1.5-1.2 2.8-2.8 2.8h-10.2v79c0 1.5-1.2 2.8-2.8 2.8-1.5 0-2.8-1.2-2.8-2.8v-79h-10.2c-1.5 0-2.8-1.2-2.8-2.8 0-1.5 1.2-2.8 2.8-2.8h25.9c1.6.1 2.9 1.3 2.9 2.8zM707.8 114.8c-8.5 0-15.5-6.8-15.5-15V40.2c.2-8.5 7.3-15.3 15.9-15.1 8.2.2 14.9 6.8 15.1 15.1v59.5c-.2 8.5-7.1 15.2-15.5 15.1zm0-84.2c-5.4-.1-9.8 4.2-9.9 9.6v59.5c0 5.5 4.5 10 10 10s10-4.5 10-10V40.2c-.2-5.4-4.7-9.7-10.1-9.6zM768 29.1v81.7c0 1.5-1.1 2.8-2.6 2.8-1.3 0-2.4-.8-2.7-2l-10.5-33.4-10.6 33.3c-.3 1.2-1.4 2-2.6 2-1.5 0-2.8-1.2-2.8-2.8V29.1c0-1.5 1.2-2.8 2.8-2.8 1.5 0 2.8 1.2 2.8 2.8v64.7l7.7-24.3c.2-1.3 1.4-2.3 2.8-2.2 1.3 0 2.5.9 2.7 2.2l7.7 24.3V29.1c0-1.5 1.2-2.8 2.8-2.8 1.3.2 2.4 1.4 2.5 2.8zM811.7 29.1v81.7c0 1.5-1.2 2.8-2.8 2.8-1.2 0-2.2-.7-2.6-1.9l-20-64.7v63.8c0 1.5-1.2 2.8-2.8 2.8-1.5 0-2.8-1.2-2.8-2.8V29.1c0-1.5 1.2-2.8 2.8-2.8 1.2 0 2.2.7 2.6 1.9l20 64.7V29.1c0-1.5 1.2-2.8 2.8-2.8 1.6.1 2.8 1.3 2.8 2.8zM855 99.1c-.2 8.9-7.6 15.9-16.5 15.7-8.6-.2-15.5-7.1-15.7-15.7 0-1.5 1.2-2.8 2.8-2.8 1.5 0 2.8 1.2 2.8 2.8 0 5.7 4.7 10.3 10.4 10.2h.2c5.7.1 10.5-4.5 10.6-10.2v-21c0-5.5-4.7-10.9-10.9-12.8-9.3-3-15-9.9-15-17.5v-7.6c.2-8.5 7.3-15.3 15.9-15.1 8.2.2 14.9 6.8 15.1 15.1 0 1.5-1.2 2.8-2.8 2.8-1.5 0-2.8-1.2-2.8-2.8 0-5.5-4.5-10-10-10s-10 4.5-10 10v7.6c0 5.3 4.4 10.2 11.2 12.2 8.7 2.8 14.8 10 14.8 18v21.1h-.1zM474.4 215.8c-.1 8.4-6.9 15.1-15.3 15h-.2c-8.5 0-15.5-6.8-15.5-15v-59.5c.2-8.5 7.3-15.3 15.9-15.1 8.2.2 14.9 6.8 15.1 15.1 0 1.5-1.2 2.8-2.8 2.8-1.5 0-2.8-1.2-2.8-2.8 0-5.5-4.5-10-10-10s-10 4.5-10 10v59.5c0 5.5 4.5 10 10 10s10-4.5 10-10c0-1.5 1.2-2.8 2.8-2.8 1.5.1 2.8 1.3 2.8 2.8zM489 229.6c-1.5 0-2.8-1.2-2.8-2.8v-70c0-8.7 6.9-15.7 14.9-15.7S516 148 516 156.8v70c0 1.5-1.2 2.8-2.8 2.8-1.5 0-2.8-1.2-2.8-2.8v-38.1h-18.7v38.1c0 1.6-1.2 2.8-2.7 2.8zm21.4-72.7c0-5.9-4.1-10.2-9.3-10.2s-9.3 4.4-9.3 10.2v26.4h18.7v-26.4zM531.6 229.6c-1.5 0-2.8-1.2-2.8-2.8v-81.7c0-1.5 1.2-2.8 2.8-2.8h16.7c7.9.1 14.3 6.6 14.3 14.6 0 4.8-2.4 9.2-6.5 11.7 4.1 2.3 6.6 6.6 6.5 11.3v46.9c0 1.5-1.2 2.8-2.8 2.8-1.5 0-2.8-1.2-2.8-2.8V180c0-4.7-3.9-8.5-8.5-8.5h-14.2v55.2c0 1.7-1.2 2.9-2.7 2.9zm2.7-63.5h14c5-.2 8.9-4.4 8.8-9.4-.2-4.8-4-8.6-8.8-8.8h-14v18.2zM580.7 208.9v10.8c.1 2.4 2 4.3 4.4 4.4h9c1.5 0 2.8 1.2 2.8 2.8 0 1.5-1.2 2.8-2.8 2.8h-9c-5.5 0-9.9-4.4-9.9-9.9v-67.5c0-5.5 4.5-9.9 9.9-9.9h9c1.5 0 2.8 1.2 2.8 2.8 0 1.5-1.2 2.8-2.8 2.8h-9c-2.4 0-4.4 1.9-4.4 4.4v51.1h13.4c1.5 0 2.8 1.2 2.8 2.8 0 1.5-1.2 2.8-2.8 2.8l-13.4-.2zM659 215.8c-.1 8.4-6.9 15.1-15.3 15h-.2c-8.5 0-15.5-6.8-15.5-15v-59.5c.2-8.5 7.3-15.3 15.9-15.1 8.2.2 14.9 6.8 15.1 15.1 0 1.5-1.2 2.8-2.8 2.8-1.5 0-2.8-1.2-2.8-2.8 0-5.5-4.5-10-10-10s-10 4.5-10 10v59.5c0 5.5 4.5 10 10 10s10-4.5 10-10c0-1.5 1.2-2.8 2.8-2.8 1.6.1 2.8 1.3 2.8 2.8zM676.4 208.9v10.8c.1 2.4 2 4.3 4.4 4.4h9c1.5 0 2.8 1.2 2.8 2.8 0 1.5-1.2 2.8-2.8 2.8h-9c-5.5 0-9.9-4.4-9.9-9.9v-67.5c0-5.5 4.5-9.9 9.9-9.9h9c1.5 0 2.8 1.2 2.8 2.8 0 1.5-1.2 2.8-2.8 2.8h-9c-2.4 0-4.4 1.9-4.4 4.4v51.1h13.4c1.5 0 2.8 1.2 2.8 2.8 0 1.5-1.2 2.8-2.8 2.8l-13.4-.2zM735.6 145.2v81.7c0 1.5-1.2 2.8-2.8 2.8-1.2 0-2.2-.7-2.6-1.9l-20-64.7v63.8c0 1.5-1.2 2.8-2.8 2.8-1.5 0-2.8-1.2-2.8-2.8v-81.7c0-1.5 1.2-2.8 2.8-2.8 1.2 0 2.2.7 2.6 1.9l20 64.7v-63.8c0-1.5 1.2-2.8 2.8-2.8 1.6 0 2.8 1.3 2.8 2.8zM777.5 145.2c0 1.5-1.2 2.8-2.8 2.8h-10.2v79c0 1.5-1.2 2.8-2.8 2.8-1.5 0-2.8-1.2-2.8-2.8v-79h-10.2c-1.5 0-2.8-1.2-2.8-2.8 0-1.5 1.2-2.8 2.8-2.8h25.9c1.6 0 2.8 1.2 2.9 2.8zM792.8 208.9v10.8c.1 2.4 2 4.3 4.4 4.4h9c1.5 0 2.8 1.2 2.8 2.8 0 1.5-1.2 2.8-2.8 2.8h-9c-5.5 0-9.9-4.4-9.9-9.9v-67.5c0-5.5 4.5-9.9 9.9-9.9h9c1.5 0 2.8 1.2 2.8 2.8 0 1.5-1.2 2.8-2.8 2.8h-9c-2.4 0-4.4 1.9-4.4 4.4v51.1h13.4c1.5 0 2.8 1.2 2.8 2.8 0 1.5-1.2 2.8-2.8 2.8l-13.4-.2zM823.8 229.6c-1.5 0-2.8-1.2-2.8-2.8v-81.7c0-1.5 1.2-2.8 2.8-2.8h16.7c7.9.2 14.3 6.7 14.2 14.6 0 4.8-2.4 9.2-6.4 11.7 4.1 2.3 6.6 6.6 6.5 11.3v46.9c0 1.5-1.2 2.8-2.8 2.8-1.5 0-2.8-1.2-2.8-2.8V180c0-4.7-3.9-8.5-8.5-8.5h-14.2v55.2c.1 1.7-1.1 2.9-2.7 2.9zm2.8-63.5h14c5-.2 8.9-4.4 8.8-9.4-.2-4.8-4-8.6-8.8-8.8h-14v18.2zM247.5 50.8h27.6v154.8h-27.6zM138.1 50.8h27.6v154.8h-27.6z"/><path d="M385.1 28.4v199.2H28.5V28.4h356.6M412.5 1H1v254h411.4l.1-254z"/></symbol><symbol id="social-facebook" viewBox="0 0 256 256"><title>social-facebook</title><path d="M238.3 4H17.7C10.1 4 4 10.1 4 17.7v220.6c0 7.6 6.1 13.7 13.7 13.7h118.7v-96h-32.3v-37.4h32.3V90.9c0-32 19.6-49.5 48.1-49.5 9.6 0 19.3.5 28.9 1.5v33.5h-19.8c-15.6 0-18.5 7.4-18.5 18.2v23.9h37.1l-4.9 37.4h-32.2v96h63.2c7.6 0 13.7-6.1 13.7-13.7V17.7c0-7.6-6.1-13.7-13.7-13.7"/></symbol><symbol id="social-instagram" viewBox="0 0 256 256"><title>social-instagram</title><path d="M127.7 26.1c33.1 0 37 .1 50.1.7 12.1.6 18.6 2.6 23 4.3 10.8 4.2 19.3 12.7 23.5 23.5 1.7 4.4 3.7 10.9 4.3 23 .6 13.1.7 17 .7 50.1s-.1 37-.7 50.1c-.6 12.1-2.6 18.6-4.3 23-4.2 10.8-12.7 19.3-23.5 23.5-4.4 1.7-10.9 3.7-23 4.3-13.1.6-17 .7-50.1.7s-37-.1-50.1-.7c-12.1-.6-18.6-2.6-23-4.3-10.8-4.2-19.4-12.7-23.5-23.5-1.7-4.4-3.7-10.9-4.3-23-.6-13.1-.7-17-.7-50.1s.1-37 .7-50.1c.5-12.1 2.6-18.7 4.3-23 4.2-10.8 12.7-19.4 23.5-23.5 4.4-1.7 10.9-3.7 23-4.3 13.1-.6 17.1-.7 50.1-.7m0-22.3c-33.7 0-37.9.1-51.1.7-13.2.6-22.2 2.7-30.1 5.8-16.6 6.4-29.8 19.6-36.2 36.3-3.1 7.9-5.2 16.9-5.8 30.1s-.7 17.4-.7 51.1.1 37.9.7 51.1c.6 13.2 2.7 22.2 5.8 30.1 6.4 16.6 19.6 29.8 36.2 36.2 7.9 3.1 16.9 5.2 30.1 5.8 13.3.6 17.4.7 51.1.7s37.9-.1 51.1-.7c13.2-.6 22.2-2.7 30.1-5.8 16.6-6.4 29.8-19.6 36.2-36.3 3.1-7.9 5.2-16.9 5.8-30.1.6-13.3.7-17.4.7-51.1s-.1-37.9-.7-51.1c-.6-13.2-2.7-22.2-5.8-30.1-6.5-16.6-19.7-29.8-36.3-36.2-7.8-3-16.8-5.1-30-5.7-13.3-.6-17.4-.8-51.1-.8z"/><path d="M127.7 64.1C92.6 64.1 64 92.6 64 127.7c0 35.2 28.5 63.7 63.6 63.7s63.7-28.5 63.7-63.6c.1-35.2-28.4-63.7-63.6-63.7zm0 105c-22.8 0-41.3-18.5-41.3-41.3s18.5-41.3 41.3-41.3S169 105 169 127.8c0 22.8-18.5 41.3-41.3 41.3z"/><circle cx="193.9" cy="61.6" r="14.9"/></symbol><symbol id="social-twitter" viewBox="0 0 256 256"><title>social-twitter</title><path d="M255 49.2c-9.5 4.2-19.6 7-29.9 8.2 10.9-6.5 19-16.7 22.9-28.8-10.2 6.1-21.4 10.3-33.1 12.6-19.7-21-52.7-22-73.7-2.3-13.5 12.7-19.3 31.7-15.1 49.8-41.9-2.1-81-21.9-107.4-54.5C4.9 58 11.9 88.5 34.8 103.8c-8.3-.3-16.4-2.5-23.6-6.5v.7c0 24.8 17.5 46.2 41.8 51.1-7.7 2.1-15.7 2.4-23.5.9 6.8 21.2 26.4 35.8 48.7 36.2-18.5 14.5-41.3 22.3-64.7 22.3-4.2 0-8.3-.2-12.4-.7 23.8 15.3 51.6 23.4 79.9 23.4 95.9 0 148.3-79.4 148.3-148.3 0-2.3 0-4.5-.1-6.7 10-7.4 18.8-16.5 25.8-27z"/></symbol></svg>