<?xml version="1.0" encoding="utf-8"?>
<!-- Generator: Adobe Illustrator 19.2.0, SVG Export Plug-In . SVG Version: 6.00 Build 0)  -->
<svg version="1.1" id="Layer_1" xmlns="http://www.w3.org/2000/svg" xmlns:xlink="http://www.w3.org/1999/xlink" x="0px" y="0px"
	 viewBox="0 0 215.1 256" style="enable-background:new 0 0 215.1 256;" xml:space="preserve">
<g>
	<title>logo-tall</title>
	<path d="M17.6,186.7c0,4.5-3.7,8.2-8.3,8.1c0,0,0,0,0,0c-4.5,0.1-8.2-3.5-8.3-8c0,0,0-0.1,0-0.1c0-0.8,0.6-1.4,1.4-1.4
		c0.8,0,1.4,0.6,1.4,1.4c0,2.9,2.4,5.3,5.4,5.3c0,0,0.1,0,0.1,0c3,0.1,5.4-2.3,5.5-5.3v-10.9c0-2.8-2.4-5.6-5.6-6.6
		c-4.9-1.5-7.8-5.1-7.8-9v-3.9c0.1-4.3,3.6-7.8,7.9-7.8c4.3-0.1,7.9,3.4,7.9,7.7c0,0,0,0,0,0c0,0.8-0.6,1.4-1.4,1.4
		c-0.8,0-1.4-0.6-1.4-1.4c0-2.8-2.3-5-5.1-5c0,0,0,0-0.1,0c-2.8-0.1-5.1,2.2-5.1,4.9c0,0,0,0,0,0v3.9c0,2.8,2.3,5.3,5.8,6.3
		c4.6,1.5,7.7,5.2,7.7,9.4L17.6,186.7L17.6,186.7L17.6,186.7z"/>
	<path d="M31.4,194.8c-4.3,0-7.8-3.5-7.9-7.8v-30.8c0-4.4,3.6-8,8-8s8,3.6,8,8V187C39.3,191.4,35.7,194.8,31.4,194.8z M31.4,151.2
		c-2.8-0.1-5.1,2.2-5.1,4.9c0,0,0,0,0,0V187c0.1,2.8,2.5,5,5.4,4.9c2.7-0.1,4.8-2.3,4.9-4.9v-30.8C36.5,153.4,34.2,151.2,31.4,151.2
		C31.4,151.2,31.4,151.2,31.4,151.2z"/>
	<path d="M53.6,192c2.9,0,4.9-2.1,4.9-5.3v-36.2c0-0.8,0.6-1.4,1.4-1.4s1.4,0.6,1.4,1.4v36.2c0,4.9-3.1,8.1-7.7,8.1
		s-7.7-3.2-7.7-8.1v-36.2c0-0.8,0.6-1.4,1.4-1.4s1.4,0.6,1.4,1.4v36.2C48.8,189.8,50.7,192,53.6,192z"/>
	<path d="M83,150.5c0,0.8-0.6,1.4-1.4,1.4h-5.3v40.9c0,0.8-0.6,1.4-1.4,1.4c-0.8,0-1.4-0.6-1.4-1.4v-40.9H68c-0.8,0-1.4-0.6-1.4-1.4
		c0-0.8,0.6-1.4,1.4-1.4c0,0,0,0,0,0h13.4C82.3,149,82.9,149.6,83,150.5C83,150.4,83,150.4,83,150.5z"/>
	<path d="M100.8,170.2v-19.7c0-0.8,0.6-1.4,1.4-1.4c0.8,0,1.4,0.6,1.4,1.4v42.2c0,0.8-0.6,1.4-1.4,1.4c-0.8,0-1.4-0.6-1.4-1.4V173
		h-9.6v19.7c0,0.8-0.6,1.4-1.4,1.4c-0.8,0-1.4-0.6-1.4-1.4v-42.2c0-0.8,0.6-1.4,1.4-1.4c0.8,0,1.4,0.6,1.4,1.4v19.7H100.8
		L100.8,170.2z"/>
	<path d="M125.4,150.5c0,0.8-0.6,1.4-1.4,1.4h-5.3v40.9c0,0.8-0.6,1.4-1.4,1.4c-0.8,0-1.4-0.6-1.4-1.4v-40.9h-5.3
		c-0.8,0-1.4-0.6-1.4-1.4c0-0.8,0.6-1.4,1.4-1.4h13.5C124.7,149,125.4,149.7,125.4,150.5C125.4,150.5,125.4,150.5,125.4,150.5z"/>
	<path d="M138.1,194.8c-4.3,0-7.8-3.5-7.9-7.8v-30.8c0-4.4,3.6-8,8-8c4.4,0,8,3.6,8,8V187C146,191.4,142.5,194.8,138.1,194.8z
		 M138.1,151.2c-2.8-0.1-5.1,2.2-5.1,4.9c0,0,0,0,0,0V187c0.1,2.8,2.5,5,5.4,4.9c2.7-0.1,4.8-2.3,4.9-4.9v-30.8
		C143.2,153.4,140.9,151.2,138.1,151.2C138.1,151.2,138.1,151.2,138.1,151.2z"/>
	<path d="M169.2,150.5v42.2c0,0.8-0.6,1.4-1.3,1.5c-0.7,0-1.3-0.4-1.4-1.1l-5.5-17.3l-5.5,17.3c-0.2,0.8-0.9,1.2-1.7,1
		c-0.7-0.2-1.1-0.8-1.1-1.4v-42.2c0-0.8,0.6-1.4,1.4-1.4s1.4,0.6,1.4,1.4c0,0,0,0,0,0v33.4l4-12.6c0.1-0.7,0.7-1.2,1.4-1.1
		c0.7,0,1.3,0.5,1.4,1.1l4,12.6v-33.4c0-0.8,0.6-1.4,1.4-1.4c0.7,0,1.4,0.5,1.4,1.3C169.2,150.4,169.2,150.4,169.2,150.5z"/>
	<path d="M191.9,150.5v42.2c0,0.8-0.6,1.4-1.4,1.4c-0.6,0-1.2-0.4-1.3-1l-10.4-33.4v33c0,0.8-0.6,1.4-1.4,1.4
		c-0.8,0-1.4-0.6-1.4-1.4v-42.2c0-0.8,0.6-1.4,1.4-1.4c0.6,0,1.2,0.4,1.3,1l10.4,33.4v-33c0-0.8,0.6-1.4,1.4-1.4
		C191.3,149,191.9,149.7,191.9,150.5z"/>
	<path d="M214.2,186.7c0,4.6-3.7,8.3-8.3,8.3c-4.6,0-8.3-3.7-8.3-8.3c0-0.8,0.6-1.4,1.4-1.4c0.8,0,1.4,0.6,1.4,1.4
		c0,2.9,2.4,5.3,5.4,5.3c0,0,0.1,0,0.1,0c3,0,5.4-2.3,5.5-5.3v-10.9c0-2.8-2.4-5.6-5.6-6.6c-4.9-1.5-7.8-5.1-7.8-9v-3.9
		c0-4.4,3.6-8,8-8c4.4,0,8,3.6,8,8c0,0.8-0.6,1.4-1.4,1.4c-0.8,0-1.4-0.6-1.4-1.4c-0.1-2.8-2.5-5-5.4-4.9c-2.7,0.1-4.8,2.3-4.9,4.9
		v3.9c0,2.8,2.3,5.3,5.8,6.3c4.6,1.5,7.7,5.2,7.7,9.4L214.2,186.7L214.2,186.7L214.2,186.7z"/>
	<path d="M17.3,247c0,4.3-3.6,7.8-7.9,7.8c-4.3,0-7.8-3.5-7.9-7.8v-30.8c0.1-4.3,3.6-7.8,7.9-7.8c4.3-0.1,7.9,3.4,7.9,7.7
		c0,0,0,0,0,0c0,0.8-0.6,1.4-1.4,1.4c-0.8,0-1.4-0.6-1.4-1.4c0-2.8-2.3-5-5.1-5c0,0,0,0-0.1,0c-2.8-0.1-5.1,2.2-5.1,4.9c0,0,0,0,0,0
		V247c0,2.8,2.3,5,5.1,5c0,0,0,0,0,0c2.7,0.1,5-2,5.1-4.8c0-0.1,0-0.1,0-0.2c0-0.8,0.6-1.4,1.4-1.4C16.7,245.6,17.3,246.2,17.3,247z
		"/>
	<path d="M24.9,254.2c-0.8,0-1.4-0.6-1.4-1.4v-36.2c-0.1-4.3,3.3-7.9,7.7-8.1c4.3,0.2,7.7,3.8,7.7,8.1v36.2c0,0.8-0.6,1.4-1.4,1.4
		c-0.8,0-1.4-0.6-1.4-1.4l0,0V233h-9.6v19.7C26.4,253.5,25.7,254.2,24.9,254.2C24.9,254.2,24.9,254.2,24.9,254.2z M36,216.6
		c0.2-2.7-1.8-5-4.5-5.2c-2.7-0.2-5,1.8-5.2,4.5c0,0.3,0,0.5,0,0.8v13.7H36L36,216.6L36,216.6L36,216.6z"/>
	<path d="M47,254.2c-0.8,0-1.4-0.6-1.4-1.4v-42.2c0-0.8,0.6-1.4,1.4-1.4h8.6c4.1,0.1,7.3,3.4,7.3,7.5c0,2.5-1.3,4.8-3.4,6
		c2.1,1.2,3.4,3.4,3.4,5.8v24.2c0,0.8-0.6,1.4-1.4,1.4c-0.8,0-1.4-0.6-1.4-1.4l0,0v-24.1c0-2.4-2-4.4-4.4-4.4c0,0,0,0-0.1,0h-7.1
		v28.6C48.3,253.6,47.7,254.1,47,254.2z M48.3,221.3h7.2c2.6-0.1,4.6-2.3,4.5-4.9c-0.1-2.4-2.1-4.4-4.5-4.5h-7.2V221.3z"/>
	<path d="M72.4,243.5v5.6c0,1.3,1.1,2.3,2.3,2.3h4.6c0.8,0,1.4,0.6,1.4,1.4c0,0.8-0.6,1.4-1.4,1.4c0,0,0,0,0,0h-4.7
		c-2.8,0-5.1-2.3-5.1-5.1v-35c0-2.8,2.3-5.1,5.1-5.1h4.7c0.8,0,1.4,0.6,1.4,1.4c0,0.8-0.6,1.4-1.4,1.4c0,0,0,0,0,0h-4.7
		c-1.3,0-2.3,1-2.3,2.3v26.5h6.9c0.8,0,1.4,0.6,1.4,1.4c0,0.8-0.6,1.4-1.4,1.4c0,0,0,0,0,0L72.4,243.5L72.4,243.5L72.4,243.5z"/>
	<path d="M112.9,247c0,4.4-3.6,8-8,8s-8-3.6-8-8v-30.8c0-4.4,3.6-8,8-8s8,3.6,8,8c0,0.8-0.6,1.4-1.4,1.4c-0.8,0-1.4-0.6-1.4-1.4l0,0
		c-0.1-2.8-2.5-5-5.4-4.9c-2.7,0.1-4.8,2.3-4.9,4.9V247c0,2.8,2.3,5,5.1,5c0,0,0,0,0,0c2.7,0.1,5-2,5.1-4.8c0-0.1,0-0.1,0-0.2
		c0-0.8,0.6-1.4,1.4-1.4C112.2,245.6,112.9,246.2,112.9,247L112.9,247z"/>
	<path d="M121.9,243.5v5.6c0,1.3,1.1,2.3,2.3,2.3h4.7c0.8,0,1.4,0.6,1.4,1.4c0,0.8-0.6,1.4-1.4,1.4h-4.7c-2.8,0-5.1-2.3-5.1-5.1v-35
		c0-2.8,2.3-5.1,5.1-5.1h4.7c0.8,0,1.4,0.6,1.4,1.4c0,0.8-0.6,1.4-1.4,1.4h-4.7c-1.3,0-2.3,1-2.3,2.3v26.5h6.9
		c0.8,0,1.4,0.6,1.4,1.4c0,0.8-0.6,1.4-1.4,1.4c0,0,0,0,0,0L121.9,243.5L121.9,243.5L121.9,243.5z"/>
	<path d="M152.5,210.5v42.2c0,0.8-0.6,1.4-1.4,1.4c-0.6,0-1.2-0.4-1.3-1l-10.4-33.4v33c0,0.8-0.6,1.4-1.4,1.4
		c-0.8,0-1.4-0.6-1.4-1.4v-42.2c0-0.8,0.6-1.4,1.4-1.4c0.6,0,1.2,0.4,1.3,1l10.4,33.4v-33c0-0.8,0.6-1.4,1.4-1.4
		C151.8,209.1,152.5,209.7,152.5,210.5z"/>
	<path d="M174.2,210.5c0,0.8-0.6,1.4-1.4,1.4h-5.3v40.9c0,0.8-0.6,1.4-1.4,1.4c-0.8,0-1.4-0.6-1.4-1.4v-40.9h-5.3
		c-0.8,0-1.4-0.6-1.4-1.4c0-0.8,0.6-1.4,1.4-1.4h13.4C173.5,209.1,174.1,209.7,174.2,210.5z"/>
	<path d="M182.1,243.5v5.6c0,1.3,1.1,2.3,2.3,2.3h4.7c0.8,0,1.4,0.6,1.4,1.4c0,0.8-0.6,1.4-1.4,1.4h-4.7c-2.8,0-5.1-2.3-5.1-5.1v-35
		c0-2.8,2.3-5.1,5.1-5.1h4.7c0.8,0,1.4,0.6,1.4,1.4c0,0.8-0.6,1.4-1.4,1.4h-4.7c-1.3,0-2.3,1-2.3,2.3v26.5h6.9
		c0.8,0,1.4,0.6,1.4,1.4c0,0.8-0.6,1.4-1.4,1.4h-6.9L182.1,243.5L182.1,243.5z"/>
	<path d="M198.2,254.2c-0.8,0-1.4-0.6-1.4-1.4v-42.2c0-0.8,0.6-1.4,1.4-1.4h8.6c4.1,0.1,7.3,3.4,7.3,7.5c0,2.5-1.3,4.8-3.4,6
		c2.1,1.2,3.4,3.4,3.4,5.8v24.2c0,0.8-0.6,1.4-1.4,1.4c-0.8,0-1.4-0.6-1.4-1.4v-24.1c0-2.4-2-4.4-4.4-4.4c0,0,0,0-0.1,0h-7.2v28.6
		c0,0.7-0.5,1.3-1.2,1.3C198.2,254.2,198.2,254.2,198.2,254.2z M199.6,221.3h7.2c2.6-0.1,4.6-2.3,4.5-4.9c-0.1-2.4-2.1-4.4-4.5-4.5
		h-7.2L199.6,221.3L199.6,221.3z"/>
	<rect x="128.9" y="27" width="14.4" height="79.7"/>
	<rect x="72" y="27" width="14.4" height="79.7"/>
	<path d="M199.9,15.2v103H15.4v-103H199.9 M214.1,1H1.2v131.4h212.9V1L214.1,1z"/>
</g>
</svg>
