<svg xmlns="http://www.w3.org/2000/svg" viewBox="0 0 860.77 256"><title>logo-wide</title><path d="M477.58,98.87a16.23,16.23,0,0,1-32.45,0,2.78,2.78,0,0,1,5.56,0,10.39,10.39,0,0,0,10.67,10.31A10.51,10.51,0,0,0,472,98.87V77.71c0-5.56-4.75-11-11-12.91-9.41-2.87-15.15-9.95-15.15-17.57V39.62a15.6,15.6,0,0,1,31.19,0,2.78,2.78,0,1,1-5.56,0,10,10,0,0,0-20.08,0v7.62c0,5.38,4.48,10.31,11.29,12.28,8.87,2.87,15,10.13,15,18.2V98.87h-0.09Z" transform="translate(0)"/><path d="M504.29,114.73c-8.52,0-15.6-6.81-15.6-15.15V39.53a15.34,15.34,0,0,1,15.6-15.15c8.52,0,15.6,6.81,15.6,15.15v60A15.42,15.42,0,0,1,504.29,114.73Zm0-84.89a9.84,9.84,0,0,0-10,9.68v60a10,10,0,0,0,20.08,0v-60A9.84,9.84,0,0,0,504.29,29.85Z" transform="translate(0)"/><path d="M547.76,109.18c5.65,0,9.41-4.12,9.41-10.31V28.32a2.78,2.78,0,1,1,5.56,0V98.87c0,9.5-6,15.78-15,15.78s-15-6.27-15-15.78V28.32a2.78,2.78,0,1,1,5.56,0V98.87C538.35,105.05,542.12,109.18,547.76,109.18Z" transform="translate(0)"/><path d="M604.86,28.32a2.79,2.79,0,0,1-2.78,2.78H591.78v79.6a2.78,2.78,0,1,1-5.56,0V31.1H575.91a2.78,2.78,0,0,1,0-5.56H602A2.93,2.93,0,0,1,604.86,28.32Z" transform="translate(0)"/><path d="M639.73,66.78V28.32a2.78,2.78,0,1,1,5.56,0V110.7a2.78,2.78,0,1,1-5.56,0V72.34H620.91V110.7a2.78,2.78,0,1,1-5.56,0V28.32a2.78,2.78,0,1,1,5.56,0V66.69h18.82v0.09Z" transform="translate(0)"/><path d="M687.51,28.32a2.79,2.79,0,0,1-2.78,2.78H674.42v79.6a2.78,2.78,0,1,1-5.56,0V31.1H658.55a2.78,2.78,0,0,1,0-5.56h26.08A2.93,2.93,0,0,1,687.51,28.32Z" transform="translate(0)"/><path d="M712.34,114.73c-8.52,0-15.6-6.81-15.6-15.15V39.53a15.6,15.6,0,0,1,31.19,0v60A15.48,15.48,0,0,1,712.34,114.73Zm0-84.89a9.84,9.84,0,0,0-10,9.68v60a10,10,0,0,0,20.08,0v-60A9.84,9.84,0,0,0,712.34,29.85Z" transform="translate(0)"/><path d="M773,28.32V110.7a2.74,2.74,0,0,1-5.38.81L757,77.89l-10.67,33.61a2.69,2.69,0,0,1-2.6,2,2.79,2.79,0,0,1-2.78-2.78V28.32a2.78,2.78,0,1,1,5.56,0V93.49L754.29,69a2.68,2.68,0,0,1,2.78-2.24A2.76,2.76,0,0,1,759.84,69l7.8,24.47V28.32a2.79,2.79,0,0,1,2.78-2.78A2.9,2.9,0,0,1,773,28.32Z" transform="translate(0)"/><path d="M817.12,28.32V110.7a2.79,2.79,0,0,1-2.78,2.78,2.61,2.61,0,0,1-2.6-1.88L791.57,46.43V110.7a2.78,2.78,0,1,1-5.56,0V28.32a2.79,2.79,0,0,1,2.78-2.78,2.61,2.61,0,0,1,2.6,1.88l20.17,65.17V28.32a2.79,2.79,0,0,1,2.78-2.78A2.92,2.92,0,0,1,817.12,28.32Z" transform="translate(0)"/><path d="M860.68,98.87a16.23,16.23,0,0,1-32.45,0,2.78,2.78,0,1,1,5.56,0,10.39,10.39,0,0,0,10.67,10.31,10.51,10.51,0,0,0,10.67-10.31V77.71c0-5.56-4.75-11-11-12.91-9.41-3-15.15-9.95-15.15-17.66V39.53a15.6,15.6,0,0,1,31.19,0,2.78,2.78,0,1,1-5.56,0,10,10,0,0,0-20.08,0v7.62c0,5.38,4.48,10.31,11.29,12.28,8.87,2.87,15,10.13,15,18.2V98.87h-0.09Z" transform="translate(0)"/><path d="M477.13,216.47a15.29,15.29,0,0,1-15.6,15.15c-8.52,0-15.6-6.81-15.6-15.15v-60a15.6,15.6,0,0,1,31.19,0,2.78,2.78,0,1,1-5.56,0,10,10,0,0,0-20.08,0v60a10,10,0,0,0,20.08,0,2.79,2.79,0,0,1,2.78-2.78A2.85,2.85,0,0,1,477.13,216.47Z" transform="translate(0)"/><path d="M491.83,230.45a2.79,2.79,0,0,1-2.78-2.78V157.13c0-8.78,7-15.78,15-15.78s15,7,15,15.78v70.54a2.78,2.78,0,1,1-5.56,0V189.31H494.61v38.36A2.79,2.79,0,0,1,491.83,230.45Zm21.6-73.32c0-5.92-4.12-10.31-9.41-10.31s-9.41,4.39-9.41,10.31v26.62h18.82V157.13Z" transform="translate(0)"/><path d="M534.77,230.45a2.79,2.79,0,0,1-2.78-2.78V145.3a2.79,2.79,0,0,1,2.78-2.78h16.85A14.64,14.64,0,0,1,566,157.22a13.79,13.79,0,0,1-6.54,11.83A12.76,12.76,0,0,1,566,180.44v47.24a2.78,2.78,0,1,1-5.56,0V180.53a8.57,8.57,0,0,0-8.78-8.52H537.55v55.66A2.92,2.92,0,0,1,534.77,230.45Zm2.69-64h14.07a9.15,9.15,0,0,0,0-18.29H537.46v18.29Z" transform="translate(0)"/><path d="M584.25,209.57V220.5a4.54,4.54,0,0,0,4.48,4.39h9.05a2.78,2.78,0,0,1,0,5.56h-9.05a10,10,0,0,1-10-9.95v-68a10,10,0,0,1,10-9.95h9.05a2.78,2.78,0,0,1,0,5.56h-9.05a4.48,4.48,0,0,0-4.48,4.39V204h13.53a2.78,2.78,0,0,1,0,5.56H584.25Z" transform="translate(0)"/><path d="M663.22,216.47a15.29,15.29,0,0,1-15.6,15.15c-8.52,0-15.6-6.81-15.6-15.15v-60a15.6,15.6,0,0,1,31.19,0,2.78,2.78,0,1,1-5.56,0,10,10,0,0,0-20.08,0v60a10,10,0,0,0,20.08,0,2.79,2.79,0,0,1,2.78-2.78A2.85,2.85,0,0,1,663.22,216.47Z" transform="translate(0)"/><path d="M680.69,209.57V220.5a4.54,4.54,0,0,0,4.48,4.39h9.05a2.78,2.78,0,0,1,0,5.56h-9.05a10,10,0,0,1-10-9.95v-68a10,10,0,0,1,10-9.95h9.05a2.78,2.78,0,0,1,0,5.56h-9.05a4.48,4.48,0,0,0-4.48,4.39V204h13.53a2.78,2.78,0,0,1,0,5.56H680.69Z" transform="translate(0)"/><path d="M740.39,145.3v82.38a2.79,2.79,0,0,1-2.78,2.78,2.61,2.61,0,0,1-2.6-1.88l-20.17-65.17v64.27a2.78,2.78,0,1,1-5.56,0V145.3a2.79,2.79,0,0,1,2.78-2.78,2.61,2.61,0,0,1,2.6,1.88l20.17,65.17V145.3a2.79,2.79,0,0,1,2.78-2.78A2.85,2.85,0,0,1,740.39,145.3Z" transform="translate(0)"/><path d="M782.61,145.3a2.79,2.79,0,0,1-2.78,2.78H769.52v79.6a2.78,2.78,0,1,1-5.56,0v-79.6H753.66a2.78,2.78,0,0,1,0-5.56h26.08A2.93,2.93,0,0,1,782.61,145.3Z" transform="translate(0)"/><path d="M798,209.57V220.5a4.54,4.54,0,0,0,4.48,4.39h9.05a2.78,2.78,0,0,1,0,5.56h-9.05a10,10,0,0,1-10-9.95v-68a10,10,0,0,1,10-9.95h9.05a2.78,2.78,0,0,1,0,5.56h-9.05a4.48,4.48,0,0,0-4.48,4.39V204h13.53a2.78,2.78,0,0,1,0,5.56H798Z" transform="translate(0)"/><path d="M829.31,230.45a2.79,2.79,0,0,1-2.78-2.78V145.3a2.79,2.79,0,0,1,2.78-2.78h16.85a14.64,14.64,0,0,1,14.34,14.7A13.79,13.79,0,0,1,854,169.05a12.76,12.76,0,0,1,6.54,11.38v47.24a2.78,2.78,0,1,1-5.56,0V180.53a8.57,8.57,0,0,0-8.78-8.52H832.09v55.66A2.79,2.79,0,0,1,829.31,230.45Zm2.78-64h14.07a9.15,9.15,0,0,0,0-18.29H832.09v18.29Z" transform="translate(0)"/><rect x="248.47" y="50.2" width="27.79" height="155.97"/><rect x="138.22" y="50.2" width="27.79" height="155.97"/><path d="M387.14,27.61V228.39H27.7V27.61H387.14M414.75,0H0V256H414.66V0h0.09Z" transform="translate(0)"/></svg>