<svg xmlns="http://www.w3.org/2000/svg" viewBox="0 0 215.14 256"><title>logo-tall</title><path d="M16.78,187.27a8.27,8.27,0,0,1-8.39,8.19A8.24,8.24,0,0,1,0,187.27a1.45,1.45,0,0,1,2.9,0,5.37,5.37,0,0,0,5.54,5.34A5.46,5.46,0,0,0,14,187.27v-11c0-2.85-2.45-5.69-5.69-6.69-4.9-1.5-7.84-5.14-7.84-9.09v-3.95a8,8,0,0,1,8-7.84,7.9,7.9,0,0,1,8,7.84,1.45,1.45,0,0,1-2.9,0,5.06,5.06,0,0,0-5.19-5,5.09,5.09,0,0,0-5.19,5v3.95c0,2.8,2.35,5.34,5.84,6.34,4.6,1.5,7.74,5.24,7.74,9.44v11h0Z" transform="translate(0)"/><path d="M30.62,195.46a8,8,0,0,1-8-7.84V156.55a8,8,0,0,1,16.08,0v31.07A8,8,0,0,1,30.62,195.46Zm0-43.91a5.09,5.09,0,0,0-5.19,5v31.07a5.2,5.2,0,0,0,10.39,0V156.55A5.09,5.09,0,0,0,30.62,151.55Z" transform="translate(0)"/><path d="M53.1,192.61c2.95,0,4.9-2.15,4.9-5.34V150.75a1.45,1.45,0,0,1,2.9,0v36.51c0,4.95-3.1,8.19-7.74,8.19s-7.74-3.25-7.74-8.19V150.75a1.45,1.45,0,0,1,2.9,0v36.51C48.2,190.46,50.15,192.61,53.1,192.61Z" transform="translate(0)"/><path d="M82.67,150.75a1.45,1.45,0,0,1-1.45,1.45H75.88v41.21a1.45,1.45,0,0,1-2.9,0V152.2H67.63a1.45,1.45,0,1,1,0-2.9H81.17A1.46,1.46,0,0,1,82.67,150.75Z" transform="translate(0)"/><path d="M100.7,170.63V150.75a1.45,1.45,0,0,1,2.9,0v42.61a1.45,1.45,0,0,1-2.9,0V173.48H91v19.88a1.45,1.45,0,0,1-2.9,0V150.75a1.45,1.45,0,0,1,2.9,0v19.88h9.74Z" transform="translate(0)"/><path d="M125.43,150.75A1.45,1.45,0,0,1,124,152.2h-5.34v41.21a1.45,1.45,0,0,1-2.9,0V152.2h-5.34a1.45,1.45,0,0,1,0-2.9H124A1.44,1.44,0,0,1,125.43,150.75Z" transform="translate(0)"/><path d="M138.31,195.46a8,8,0,0,1-8-7.84V156.55a8,8,0,0,1,16.08,0v31.07A8,8,0,0,1,138.31,195.46Zm0-43.91a5.09,5.09,0,0,0-5.19,5v31.07a5.2,5.2,0,0,0,10.39,0V156.55A5.09,5.09,0,0,0,138.31,151.55Z" transform="translate(0)"/><path d="M169.68,150.75v42.61a1.42,1.42,0,0,1-2.8.4l-5.54-17.43-5.54,17.43a1.42,1.42,0,0,1-2.8-.4V150.75a1.45,1.45,0,1,1,2.9,0v33.72l4-12.69a1.4,1.4,0,0,1,1.45-1.15,1.43,1.43,0,0,1,1.45,1.15l4,12.69V150.75a1.45,1.45,0,0,1,1.45-1.45A1.37,1.37,0,0,1,169.68,150.75Z" transform="translate(0)"/><path d="M192.56,150.75v42.61a1.45,1.45,0,0,1-1.45,1.45,1.39,1.39,0,0,1-1.35-1l-10.44-33.72v33.27a1.45,1.45,0,0,1-2.9,0V150.75a1.45,1.45,0,0,1,1.45-1.45,1.39,1.39,0,0,1,1.35,1L189.66,184V150.75A1.45,1.45,0,0,1,192.56,150.75Z" transform="translate(0)"/><path d="M215.09,187.27a8.39,8.39,0,0,1-16.78,0,1.45,1.45,0,0,1,2.9,0,5.37,5.37,0,0,0,5.54,5.34,5.46,5.46,0,0,0,5.54-5.34v-11c0-2.85-2.45-5.69-5.69-6.69-4.9-1.5-7.84-5.14-7.84-9.09v-3.95a8,8,0,0,1,16.08,0,1.45,1.45,0,0,1-2.9,0,5.2,5.2,0,0,0-10.39,0v3.95c0,2.8,2.35,5.34,5.84,6.34,4.6,1.5,7.74,5.24,7.74,9.44v11h0Z" transform="translate(0)"/><path d="M16.48,248.16a7.93,7.93,0,0,1-8,7.84,8,8,0,0,1-8-7.84V217.09a8,8,0,0,1,8-7.84,7.9,7.9,0,0,1,8,7.84,1.45,1.45,0,0,1-2.9,0,5.06,5.06,0,0,0-5.19-5,5.09,5.09,0,0,0-5.19,5v31.07a5.09,5.09,0,0,0,5.19,5,5,5,0,0,0,5.19-5A1.45,1.45,0,0,1,16.48,248.16Z" transform="translate(0)"/><path d="M24.13,255.35a1.45,1.45,0,0,1-1.45-1.45V217.39a8.08,8.08,0,0,1,7.74-8.19,8.08,8.08,0,0,1,7.74,8.19V253.9a1.45,1.45,0,0,1-2.9,0V234H25.58V253.9A1.45,1.45,0,0,1,24.13,255.35Zm11.19-37.91a4.91,4.91,0,1,0-9.79,0v13.79h9.74V217.44h0Z" transform="translate(0)"/><path d="M46.35,255.35a1.45,1.45,0,0,1-1.45-1.45V211.29a1.45,1.45,0,0,1,1.45-1.45H55a7.55,7.55,0,0,1,7.39,7.59,7,7,0,0,1-3.4,6.09,6.69,6.69,0,0,1,3.4,5.89v24.43a1.45,1.45,0,0,1-2.9,0V229.53a4.44,4.44,0,0,0-4.55-4.4H47.75V254A1.42,1.42,0,0,1,46.35,255.35Zm1.4-33.12H55a4.75,4.75,0,0,0,0-9.49H47.75v9.49Z" transform="translate(0)"/><path d="M72,244.61v5.64a2.37,2.37,0,0,0,2.35,2.3H79a1.45,1.45,0,1,1,0,2.9h-4.7a5.18,5.18,0,0,1-5.19-5.14V215a5.18,5.18,0,0,1,5.19-5.14H79a1.45,1.45,0,1,1,0,2.9h-4.7a2.37,2.37,0,0,0-2.35,2.3v26.72h7a1.45,1.45,0,1,1,0,2.9H72v-0.1Z" transform="translate(0)"/><path d="M112.84,248.16a8,8,0,0,1-16.08,0V217.09a8,8,0,0,1,16.08,0,1.45,1.45,0,0,1-2.9,0,5.2,5.2,0,0,0-10.39,0v31.07a5.09,5.09,0,0,0,5.19,5,5,5,0,0,0,5.19-5A1.45,1.45,0,0,1,112.84,248.16Z" transform="translate(0)"/><path d="M121.93,244.61v5.64a2.37,2.37,0,0,0,2.35,2.3H129a1.45,1.45,0,0,1,0,2.9h-4.7a5.18,5.18,0,0,1-5.19-5.14V215a5.18,5.18,0,0,1,5.19-5.14H129a1.45,1.45,0,0,1,0,2.9h-4.7a2.37,2.37,0,0,0-2.35,2.3v26.72h7a1.45,1.45,0,1,1,0,2.9h-7v-0.1Z" transform="translate(0)"/><path d="M152.8,211.29V253.9a1.45,1.45,0,0,1-1.45,1.45,1.39,1.39,0,0,1-1.35-1l-10.44-33.72V253.9a1.45,1.45,0,0,1-2.9,0V211.29a1.45,1.45,0,0,1,1.45-1.45,1.39,1.39,0,0,1,1.35,1l10.44,33.72V211.29a1.45,1.45,0,0,1,1.45-1.45A1.48,1.48,0,0,1,152.8,211.29Z" transform="translate(0)"/><path d="M174.68,211.29a1.45,1.45,0,0,1-1.45,1.45h-5.34V254a1.45,1.45,0,0,1-2.9,0V212.74h-5.34a1.45,1.45,0,0,1,0-2.9h13.54A1.53,1.53,0,0,1,174.68,211.29Z" transform="translate(0)"/><path d="M182.67,244.61v5.64a2.37,2.37,0,0,0,2.35,2.3h4.7a1.45,1.45,0,0,1,0,2.9H185a5.18,5.18,0,0,1-5.19-5.14V215A5.18,5.18,0,0,1,185,209.9h4.7a1.45,1.45,0,0,1,0,2.9H185a2.37,2.37,0,0,0-2.35,2.3v26.72h7a1.45,1.45,0,0,1,0,2.9h-7v-0.1Z" transform="translate(0)"/><path d="M198.86,255.35a1.45,1.45,0,0,1-1.45-1.45V211.29a1.45,1.45,0,0,1,1.45-1.45h8.69a7.55,7.55,0,0,1,7.39,7.59,7,7,0,0,1-3.4,6.09,6.69,6.69,0,0,1,3.4,5.89v24.43a1.45,1.45,0,0,1-2.9,0V229.53a4.44,4.44,0,0,0-4.55-4.4H200.2V254A1.28,1.28,0,0,1,198.86,255.35Zm1.45-33.12h7.29a4.75,4.75,0,0,0,0-9.49H200.3v9.49Z" transform="translate(0)"/><rect x="129.02" y="26.22" width="14.49" height="80.42"/><rect x="71.58" y="26.22" width="14.49" height="80.42"/><path d="M200.6,14.34V118.28H14.54V14.34H200.6M214.94,0H0.2V132.57H214.94V0h0Z" transform="translate(0)"/></svg>