<?xml version="1.0" encoding="utf-8"?>
<!-- Generator: Adobe Illustrator 19.2.0, SVG Export Plug-In . SVG Version: 6.00 Build 0)  -->
<svg version="1.1" id="Layer_1" xmlns="http://www.w3.org/2000/svg" xmlns:xlink="http://www.w3.org/1999/xlink" x="0px" y="0px"
	 viewBox="0 0 856 256" style="enable-background:new 0 0 856 256;" xml:space="preserve">
<title>logo-wide</title>
<g>
	<path d="M474.8,99.1c-0.2,8.9-7.6,15.9-16.5,15.7c-8.6-0.2-15.5-7.1-15.7-15.7c0-1.5,1.2-2.8,2.8-2.8c1.5,0,2.8,1.2,2.8,2.8
		c0,5.7,4.7,10.3,10.4,10.2c0.1,0,0.1,0,0.2,0c5.7,0.1,10.4-4.5,10.6-10.2v-21c0-5.5-4.7-10.9-10.9-12.8c-9.3-2.8-15-9.9-15-17.4
		v-7.6c0.2-8.5,7.3-15.3,15.9-15.1c8.2,0.2,14.9,6.8,15.1,15.1c0,1.5-1.2,2.8-2.8,2.8c-1.5,0-2.8-1.2-2.8-2.8c0,0,0,0,0,0
		c0-5.5-4.5-10-10-10c-5.5,0-10,4.5-10,10v7.6c0,5.3,4.4,10.2,11.2,12.2c8.8,2.8,14.9,10.1,14.9,18.1v21H474.8L474.8,99.1z"/>
	<path d="M501.4,114.8c-8.5,0-15.5-6.8-15.5-15V40.2c0.1-8.4,7-15.1,15.4-15c0,0,0,0,0.1,0c8.5,0,15.5,6.8,15.5,15v59.5
		C516.7,108.2,509.8,114.9,501.4,114.8z M501.4,30.6c-5.4-0.1-9.8,4.2-9.9,9.6c0,0,0,0,0,0v59.5c0,5.5,4.5,10,10,10
		c5.5,0,10-4.5,10-10V40.2C511.3,34.8,506.8,30.5,501.4,30.6C501.4,30.6,501.4,30.6,501.4,30.6L501.4,30.6z"/>
	<path d="M544.5,109.3c5.6,0,9.3-4.1,9.3-10.2v-70c0-1.5,1.2-2.8,2.8-2.8c1.5,0,2.8,1.2,2.8,2.8c0,0,0,0,0,0v70
		c0,9.4-6,15.7-14.9,15.7s-14.9-6.2-14.9-15.7v-70c0-1.5,1.2-2.8,2.8-2.8s2.8,1.2,2.8,2.8c0,0,0,0,0,0v70
		C535.1,105.2,538.9,109.3,544.5,109.3z"/>
	<path d="M601.1,29.1c0,1.5-1.2,2.8-2.8,2.8h-10.2v79c0,1.5-1.2,2.8-2.8,2.8c-1.5,0-2.8-1.2-2.8-2.8c0,0,0,0,0,0v-79h-10.2
		c-1.5,0-2.8-1.2-2.8-2.8c0-1.5,1.2-2.8,2.8-2.8h25.9C599.8,26.4,601.1,27.6,601.1,29.1z"/>
	<path d="M635.7,67.3V29.1c0-1.5,1.2-2.8,2.8-2.8s2.8,1.2,2.8,2.8c0,0,0,0,0,0v81.7c0,1.5-1.2,2.8-2.8,2.8c-1.5,0-2.8-1.2-2.8-2.8
		c0,0,0,0,0,0V72.8h-18.7v38.1c0,1.5-1.2,2.8-2.8,2.8c-1.5,0-2.8-1.2-2.8-2.8c0,0,0,0,0,0V29.1c0-1.5,1.2-2.8,2.8-2.8
		c1.5,0,2.8,1.2,2.8,2.8c0,0,0,0,0,0v38.1L635.7,67.3L635.7,67.3z"/>
	<path d="M683.1,29.1c0,1.5-1.2,2.8-2.8,2.8h-10.2v79c0,1.5-1.2,2.8-2.8,2.8c-1.5,0-2.8-1.2-2.8-2.8c0,0,0,0,0,0v-79h-10.2
		c-1.5,0-2.8-1.2-2.8-2.8c0-1.5,1.2-2.8,2.8-2.8h25.9C681.8,26.4,683.1,27.6,683.1,29.1z"/>
	<path d="M707.8,114.8c-8.5,0-15.5-6.8-15.5-15V40.2c0.2-8.5,7.3-15.3,15.9-15.1c8.2,0.2,14.9,6.8,15.1,15.1v59.5
		C723.1,108.2,716.2,114.9,707.8,114.8z M707.8,30.6c-5.4-0.1-9.8,4.2-9.9,9.6c0,0,0,0,0,0v59.5c0,5.5,4.5,10,10,10
		c5.5,0,10-4.5,10-10V40.2C717.7,34.8,713.2,30.5,707.8,30.6C707.8,30.6,707.8,30.6,707.8,30.6L707.8,30.6z"/>
	<path d="M768,29.1v81.7c0,1.5-1.1,2.8-2.6,2.8c-1.3,0-2.4-0.8-2.7-2l-10.5-33.4l-10.6,33.3c-0.3,1.2-1.4,2-2.6,2
		c-1.5,0-2.8-1.2-2.8-2.8V29.1c0-1.5,1.2-2.8,2.8-2.8c1.5,0,2.8,1.2,2.8,2.8c0,0,0,0,0,0v64.7l7.7-24.3c0.2-1.3,1.4-2.3,2.8-2.2
		c1.3,0,2.5,0.9,2.7,2.2l7.7,24.3V29.1c0-1.5,1.2-2.8,2.8-2.8C766.8,26.5,767.9,27.7,768,29.1z"/>
	<path d="M811.7,29.1v81.7c0,1.5-1.2,2.8-2.8,2.8c-1.2,0-2.2-0.7-2.6-1.9l-20-64.7v63.8c0,1.5-1.2,2.8-2.8,2.8
		c-1.5,0-2.8-1.2-2.8-2.8c0,0,0,0,0,0V29.1c0-1.5,1.2-2.8,2.8-2.8c1.2,0,2.2,0.7,2.6,1.9l20,64.7V29.1c0-1.5,1.2-2.8,2.8-2.8
		C810.5,26.4,811.7,27.6,811.7,29.1z"/>
	<path d="M855,99.1c-0.2,8.9-7.6,15.9-16.5,15.7c-8.6-0.2-15.5-7.1-15.7-15.7c0-1.5,1.2-2.8,2.8-2.8c1.5,0,2.8,1.2,2.8,2.8
		c0,0,0,0,0,0c0,5.7,4.7,10.3,10.4,10.2c0.1,0,0.1,0,0.2,0c5.7,0.1,10.5-4.5,10.6-10.2v-21c0-5.5-4.7-10.9-10.9-12.8
		c-9.3-3-15-9.9-15-17.5v-7.6c0.2-8.5,7.3-15.3,15.9-15.1c8.2,0.2,14.9,6.8,15.1,15.1c0,1.5-1.2,2.8-2.8,2.8c-1.5,0-2.8-1.2-2.8-2.8
		c0,0,0,0,0,0c0-5.5-4.5-10-10-10c-5.5,0-10,4.5-10,10v7.6c0,5.3,4.4,10.2,11.2,12.2C849,62.8,855.1,70,855.1,78v21.1H855L855,99.1z
		"/>
	<path d="M474.4,215.8c-0.1,8.4-6.9,15.1-15.3,15c-0.1,0-0.1,0-0.2,0c-8.5,0-15.5-6.8-15.5-15v-59.5c0.2-8.5,7.3-15.3,15.9-15.1
		c8.2,0.2,14.9,6.8,15.1,15.1c0,1.5-1.2,2.8-2.8,2.8c-1.5,0-2.8-1.2-2.8-2.8c0,0,0,0,0,0c0-5.5-4.5-10-10-10c-5.5,0-10,4.5-10,10
		v59.5c0,5.5,4.5,10,10,10c5.5,0,10-4.5,10-10c0-1.5,1.2-2.8,2.8-2.8C473.1,213.1,474.4,214.3,474.4,215.8z"/>
	<path d="M489,229.6c-1.5,0-2.8-1.2-2.8-2.8v-70c0-8.7,6.9-15.7,14.9-15.7s14.9,6.9,14.9,15.7v70c0,1.5-1.2,2.8-2.8,2.8
		c-1.5,0-2.8-1.2-2.8-2.8c0,0,0,0,0,0v-38.1h-18.7v38.1C491.7,228.4,490.5,229.6,489,229.6z M510.4,156.9c0-5.9-4.1-10.2-9.3-10.2
		s-9.3,4.4-9.3,10.2v26.4h18.7V156.9z"/>
	<path d="M531.6,229.6c-1.5,0-2.8-1.2-2.8-2.8v-81.7c0-1.5,1.2-2.8,2.8-2.8h16.7c7.9,0.1,14.3,6.6,14.3,14.6c0,4.8-2.4,9.2-6.5,11.7
		c4.1,2.3,6.6,6.6,6.5,11.3v46.9c0,1.5-1.2,2.8-2.8,2.8c-1.5,0-2.8-1.2-2.8-2.8c0,0,0,0,0,0v-46.8c0-4.7-3.9-8.5-8.5-8.5
		c-0.1,0-0.1,0-0.2,0h-14v55.2C534.3,228.4,533.1,229.6,531.6,229.6z M534.3,166.1h14c5-0.2,8.9-4.4,8.8-9.4c-0.2-4.8-4-8.6-8.8-8.8
		h-14V166.1L534.3,166.1z"/>
	<path d="M580.7,208.9v10.8c0.1,2.4,2,4.3,4.4,4.4h9c1.5,0,2.8,1.2,2.8,2.8c0,1.5-1.2,2.8-2.8,2.8h-9c-5.5,0-9.9-4.4-9.9-9.9v-67.5
		c0-5.5,4.5-9.9,9.9-9.9h9c1.5,0,2.8,1.2,2.8,2.8c0,1.5-1.2,2.8-2.8,2.8h-9c-2.4,0-4.4,1.9-4.4,4.4v51.1h13.4c1.5,0,2.8,1.2,2.8,2.8
		c0,1.5-1.2,2.8-2.8,2.8L580.7,208.9L580.7,208.9z"/>
	<path d="M659,215.8c-0.1,8.4-6.9,15.1-15.3,15c-0.1,0-0.1,0-0.2,0c-8.5,0-15.5-6.8-15.5-15v-59.5c0.2-8.5,7.3-15.3,15.9-15.1
		c8.2,0.2,14.9,6.8,15.1,15.1c0,1.5-1.2,2.8-2.8,2.8c-1.5,0-2.8-1.2-2.8-2.8c0,0,0,0,0,0c0-5.5-4.5-10-10-10c-5.5,0-10,4.5-10,10
		v59.5c0,5.5,4.5,10,10,10c5.5,0,10-4.5,10-10c0-1.5,1.2-2.8,2.8-2.8C657.8,213.1,659,214.3,659,215.8z"/>
	<path d="M676.4,208.9v10.8c0.1,2.4,2,4.3,4.4,4.4h9c1.5,0,2.8,1.2,2.8,2.8c0,1.5-1.2,2.8-2.8,2.8h-9c-5.5,0-9.9-4.4-9.9-9.9v-67.5
		c0-5.5,4.5-9.9,9.9-9.9h9c1.5,0,2.8,1.2,2.8,2.8c0,1.5-1.2,2.8-2.8,2.8h-9c-2.4,0-4.4,1.9-4.4,4.4v51.1h13.4c1.5,0,2.8,1.2,2.8,2.8
		c0,1.5-1.2,2.8-2.8,2.8L676.4,208.9L676.4,208.9z"/>
	<path d="M735.6,145.2v81.7c0,1.5-1.2,2.8-2.8,2.8c-1.2,0-2.2-0.7-2.6-1.9l-20-64.7v63.8c0,1.5-1.2,2.8-2.8,2.8
		c-1.5,0-2.8-1.2-2.8-2.8c0,0,0,0,0,0v-81.7c0-1.5,1.2-2.8,2.8-2.8c1.2,0,2.2,0.7,2.6,1.9l20,64.7v-63.8c0-1.5,1.2-2.8,2.8-2.8
		C734.4,142.4,735.6,143.7,735.6,145.2z"/>
	<path d="M777.5,145.2c0,1.5-1.2,2.8-2.8,2.8h-10.2v79c0,1.5-1.2,2.8-2.8,2.8c-1.5,0-2.8-1.2-2.8-2.8c0,0,0,0,0,0v-79h-10.2
		c-1.5,0-2.8-1.2-2.8-2.8c0-1.5,1.2-2.8,2.8-2.8h25.9C776.2,142.4,777.4,143.6,777.5,145.2z"/>
	<path d="M792.8,208.9v10.8c0.1,2.4,2,4.3,4.4,4.4h9c1.5,0,2.8,1.2,2.8,2.8c0,1.5-1.2,2.8-2.8,2.8h-9c-5.5,0-9.9-4.4-9.9-9.9v-67.5
		c0-5.5,4.5-9.9,9.9-9.9h9c1.5,0,2.8,1.2,2.8,2.8c0,1.5-1.2,2.8-2.8,2.8h-9c-2.4,0-4.4,1.9-4.4,4.4v51.1h13.4c1.5,0,2.8,1.2,2.8,2.8
		c0,1.5-1.2,2.8-2.8,2.8L792.8,208.9L792.8,208.9z"/>
	<path d="M823.8,229.6c-1.5,0-2.8-1.2-2.8-2.8v-81.7c0-1.5,1.2-2.8,2.8-2.8h16.7c7.9,0.2,14.3,6.7,14.2,14.6c0,4.8-2.4,9.2-6.4,11.7
		c4.1,2.3,6.6,6.6,6.5,11.3v46.9c0,1.5-1.2,2.8-2.8,2.8c-1.5,0-2.8-1.2-2.8-2.8c0,0,0,0,0,0v-46.8c0-4.7-3.9-8.5-8.5-8.5
		c-0.1,0-0.1,0-0.2,0h-14v55.2C826.6,228.4,825.4,229.6,823.8,229.6z M826.6,166.1h14c5-0.2,8.9-4.4,8.8-9.4c-0.2-4.8-4-8.6-8.8-8.8
		h-14V166.1L826.6,166.1z"/>
	<rect x="247.5" y="50.8" width="27.6" height="154.8"/>
	<rect x="138.1" y="50.8" width="27.6" height="154.8"/>
	<path d="M385.1,28.4v199.2H28.5V28.4H385.1 M412.5,1H1v254h411.4L412.5,1L412.5,1z"/>
</g>
</svg>
