<?xml version="1.0" encoding="utf-8"?>
<!-- Generator: Adobe Illustrator 19.1.0, SVG Export Plug-In . SVG Version: 6.00 Build 0)  -->
<svg version="1.1" id="Layer_1" xmlns="http://www.w3.org/2000/svg" xmlns:xlink="http://www.w3.org/1999/xlink" x="0px" y="0px"
	 viewBox="0 0 960 283.6" enable-background="new 0 0 960 283.6" xml:space="preserve">
<g>
	<g>
		<path d="M532.6,108.3c0,9.8-8.1,17.6-18.1,17.6c-10.1,0-18.1-7.8-18.1-17.6c0-1.7,1.4-3.1,3.1-3.1c1.7,0,3.1,1.4,3.1,3.1
			c0,6.4,5.2,11.5,11.9,11.5c6.6,0,11.9-5.2,11.9-11.5V84.7c0-6.2-5.3-12.3-12.3-14.4c-10.5-3.2-16.9-11.1-16.9-19.6v-8.5
			c0-9.4,7.8-16.9,17.4-16.9c9.7,0,17.4,7.6,17.4,16.9c0,1.7-1.4,3.1-3.1,3.1s-3.1-1.4-3.1-3.1c0-6-4.9-10.8-11.2-10.8
			c-6.2,0-11.2,4.8-11.2,10.8v8.5c0,6,5,11.5,12.6,13.7c9.9,3.2,16.7,11.3,16.7,20.3V108.3z"/>
		<path d="M562.4,126c-9.5,0-17.4-7.6-17.4-16.9V42.1c0-9.4,7.8-16.9,17.4-16.9c9.5,0,17.4,7.6,17.4,16.9V109
			C579.8,118.4,572,126,562.4,126z M562.4,31.3c-6.2,0-11.2,4.8-11.2,10.8V109c0,6,5,10.8,11.2,10.8c6.2,0,11.2-4.8,11.2-10.8V42.1
			C573.6,36.1,568.6,31.3,562.4,31.3z"/>
		<path d="M610.9,119.8c6.3,0,10.5-4.6,10.5-11.5V29.6c0-1.7,1.4-3.1,3.1-3.1c1.7,0,3.1,1.4,3.1,3.1v78.7c0,10.6-6.7,17.6-16.7,17.6
			s-16.7-7-16.7-17.6V29.6c0-1.7,1.4-3.1,3.1-3.1s3.1,1.4,3.1,3.1v78.7C600.4,115.2,604.6,119.8,610.9,119.8z"/>
		<path d="M674.6,29.6c0,1.7-1.4,3.1-3.1,3.1h-11.5v88.8c0,1.7-1.4,3.1-3.1,3.1c-1.7,0-3.1-1.4-3.1-3.1V32.7h-11.5
			c-1.7,0-3.1-1.4-3.1-3.1s1.4-3.1,3.1-3.1h29.1C673.2,26.6,674.6,28,674.6,29.6z"/>
		<path d="M713.5,72.5V29.6c0-1.7,1.4-3.1,3.1-3.1s3.1,1.4,3.1,3.1v91.9c0,1.7-1.4,3.1-3.1,3.1s-3.1-1.4-3.1-3.1V78.7h-21v42.8
			c0,1.7-1.4,3.1-3.1,3.1c-1.7,0-3.1-1.4-3.1-3.1V29.6c0-1.7,1.4-3.1,3.1-3.1c1.7,0,3.1,1.4,3.1,3.1v42.8H713.5z"/>
		<path d="M766.8,29.6c0,1.7-1.4,3.1-3.1,3.1h-11.5v88.8c0,1.7-1.4,3.1-3.1,3.1c-1.7,0-3.1-1.4-3.1-3.1V32.7h-11.5
			c-1.7,0-3.1-1.4-3.1-3.1s1.4-3.1,3.1-3.1h29.1C765.4,26.6,766.8,28,766.8,29.6z"/>
		<path d="M794.5,126c-9.5,0-17.4-7.6-17.4-16.9V42.1c0-9.4,7.8-16.9,17.4-16.9s17.4,7.6,17.4,16.9V109
			C811.9,118.4,804,126,794.5,126z M794.5,31.3c-6.2,0-11.2,4.8-11.2,10.8V109c0,6,5,10.8,11.2,10.8s11.2-4.8,11.2-10.8V42.1
			C805.7,36.1,800.7,31.3,794.5,31.3z"/>
		<path d="M862.2,29.6v91.9c0,1.7-1.4,3.1-3.1,3.1c-1.4,0-2.5-1-2.9-2.2l-11.9-37.5l-11.9,37.5c-0.4,1.3-1.5,2.2-2.9,2.2
			c-1.7,0-3.1-1.4-3.1-3.1V29.6c0-1.7,1.4-3.1,3.1-3.1c1.7,0,3.1,1.4,3.1,3.1v72.7l8.7-27.3c0.6-2,1.8-2.5,3.1-2.5s2.5,0.6,3.1,2.5
			l8.7,27.3V29.6c0-1.7,1.4-3.1,3.1-3.1C860.8,26.6,862.2,28,862.2,29.6z"/>
		<path d="M911.4,29.6v91.9c0,1.7-1.4,3.1-3.1,3.1c-1.4,0-2.5-0.8-2.9-2.1l-22.5-72.7v71.7c0,1.7-1.4,3.1-3.1,3.1s-3.1-1.4-3.1-3.1
			V29.6c0-1.7,1.4-3.1,3.1-3.1c1.4,0,2.5,0.8,2.9,2.1l22.5,72.7V29.6c0-1.7,1.4-3.1,3.1-3.1C910,26.6,911.4,28,911.4,29.6z"/>
		<path d="M960,108.3c0,9.8-8.1,17.6-18.1,17.6c-10.1,0-18.1-7.8-18.1-17.6c0-1.7,1.4-3.1,3.1-3.1c1.7,0,3.1,1.4,3.1,3.1
			c0,6.4,5.2,11.5,11.9,11.5c6.6,0,11.9-5.2,11.9-11.5V84.7c0-6.2-5.3-12.3-12.3-14.4C931,67,924.6,59.2,924.6,50.6v-8.5
			c0-9.4,7.8-16.9,17.4-16.9c9.7,0,17.4,7.6,17.4,16.9c0,1.7-1.4,3.1-3.1,3.1c-1.7,0-3.1-1.4-3.1-3.1c0-6-4.9-10.8-11.2-10.8
			c-6.2,0-11.2,4.8-11.2,10.8v8.5c0,6,5,11.5,12.6,13.7c9.9,3.2,16.7,11.3,16.7,20.3V108.3z"/>
		<path d="M532.1,239.5c0,9.4-7.7,16.9-17.4,16.9c-9.5,0-17.4-7.6-17.4-16.9v-66.9c0-9.4,7.8-16.9,17.4-16.9
			c9.7,0,17.4,7.6,17.4,16.9c0,1.7-1.4,3.1-3.1,3.1s-3.1-1.4-3.1-3.1c0-6-4.9-10.8-11.2-10.8c-6.2,0-11.2,4.8-11.2,10.8v66.9
			c0,6,5,10.8,11.2,10.8c6.3,0,11.2-4.8,11.2-10.8c0-1.7,1.4-3.1,3.1-3.1S532.1,237.9,532.1,239.5z"/>
		<path d="M548.5,255.1c-1.7,0-3.1-1.4-3.1-3.1v-78.7c0-9.8,7.8-17.6,16.7-17.6c8.8,0,16.7,7.8,16.7,17.6V252c0,1.7-1.4,3.1-3.1,3.1
			s-3.1-1.4-3.1-3.1v-42.8h-21V252C551.6,253.7,550.2,255.1,548.5,255.1z M572.6,173.3c0-6.6-4.6-11.5-10.5-11.5
			s-10.5,4.9-10.5,11.5V203h21V173.3z"/>
		<path d="M596.4,255.1c-1.7,0-3.1-1.4-3.1-3.1v-91.9c0-1.7,1.4-3.1,3.1-3.1h18.8c8.7,0,16,7.4,16,16.4c0,5.3-2.5,10.1-7.3,13.2
			c4.8,2.8,7.3,7.4,7.3,12.7V252c0,1.7-1.4,3.1-3.1,3.1s-3.1-1.4-3.1-3.1v-52.6c-0.1-5.3-4.2-9.5-9.8-9.5h-15.7V252
			C599.4,253.7,598,255.1,596.4,255.1z M599.4,183.7h15.7c5.3,0,9.8-4.6,9.8-10.2s-4.5-10.2-9.8-10.2h-15.7V183.7z"/>
		<path d="M651.6,231.8V244c0,2.7,2.4,4.9,5,4.9h10.1c1.7,0,3.1,1.4,3.1,3.1c0,1.7-1.4,3.1-3.1,3.1h-10.1c-6.2,0-11.2-4.9-11.2-11.1
			v-75.9c0-6.2,5-11.1,11.2-11.1h10.1c1.7,0,3.1,1.4,3.1,3.1c0,1.7-1.4,3.1-3.1,3.1h-10.1c-2.7,0-5,2.2-5,4.9v57.5h15.1
			c1.7,0,3.1,1.4,3.1,3.1s-1.4,3.1-3.1,3.1H651.6z"/>
		<path d="M739.7,239.5c0,9.4-7.7,16.9-17.4,16.9c-9.5,0-17.4-7.6-17.4-16.9v-66.9c0-9.4,7.8-16.9,17.4-16.9
			c9.7,0,17.4,7.6,17.4,16.9c0,1.7-1.4,3.1-3.1,3.1s-3.1-1.4-3.1-3.1c0-6-4.9-10.8-11.2-10.8c-6.2,0-11.2,4.8-11.2,10.8v66.9
			c0,6,5,10.8,11.2,10.8c6.3,0,11.2-4.8,11.2-10.8c0-1.7,1.4-3.1,3.1-3.1S739.7,237.9,739.7,239.5z"/>
		<path d="M759.2,231.8V244c0,2.7,2.4,4.9,5,4.9h10.1c1.7,0,3.1,1.4,3.1,3.1c0,1.7-1.4,3.1-3.1,3.1h-10.1c-6.2,0-11.2-4.9-11.2-11.1
			v-75.9c0-6.2,5-11.1,11.2-11.1h10.1c1.7,0,3.1,1.4,3.1,3.1c0,1.7-1.4,3.1-3.1,3.1h-10.1c-2.7,0-5,2.2-5,4.9v57.5h15.1
			c1.7,0,3.1,1.4,3.1,3.1s-1.4,3.1-3.1,3.1H759.2z"/>
		<path d="M825.8,160.1V252c0,1.7-1.4,3.1-3.1,3.1c-1.4,0-2.5-0.8-2.9-2.1l-22.5-72.7V252c0,1.7-1.4,3.1-3.1,3.1
			c-1.7,0-3.1-1.4-3.1-3.1v-91.9c0-1.7,1.4-3.1,3.1-3.1c1.4,0,2.5,0.8,2.9,2.1l22.5,72.7v-71.7c0-1.7,1.4-3.1,3.1-3.1
			S825.8,158.5,825.8,160.1z"/>
		<path d="M872.9,160.1c0,1.7-1.4,3.1-3.1,3.1h-11.5V252c0,1.7-1.4,3.1-3.1,3.1s-3.1-1.4-3.1-3.1v-88.8h-11.5
			c-1.7,0-3.1-1.4-3.1-3.1c0-1.7,1.4-3.1,3.1-3.1h29.1C871.5,157.1,872.9,158.5,872.9,160.1z"/>
		<path d="M890.1,231.8V244c0,2.7,2.4,4.9,5,4.9h10.1c1.7,0,3.1,1.4,3.1,3.1c0,1.7-1.4,3.1-3.1,3.1h-10.1c-6.2,0-11.2-4.9-11.2-11.1
			v-75.9c0-6.2,5-11.1,11.2-11.1h10.1c1.7,0,3.1,1.4,3.1,3.1c0,1.7-1.4,3.1-3.1,3.1h-10.1c-2.7,0-5,2.2-5,4.9v57.5h15.1
			c1.7,0,3.1,1.4,3.1,3.1s-1.4,3.1-3.1,3.1H890.1z"/>
		<path d="M925,255.1c-1.7,0-3.1-1.4-3.1-3.1v-91.9c0-1.7,1.4-3.1,3.1-3.1h18.8c8.7,0,16,7.4,16,16.4c0,5.3-2.5,10.1-7.3,13.2
			c4.8,2.8,7.3,7.4,7.3,12.7V252c0,1.7-1.4,3.1-3.1,3.1s-3.1-1.4-3.1-3.1v-52.6c-0.1-5.3-4.2-9.5-9.8-9.5h-15.7V252
			C928.1,253.7,926.7,255.1,925,255.1z M928.1,183.7h15.7c5.3,0,9.8-4.6,9.8-10.2s-4.5-10.2-9.8-10.2h-15.7V183.7z"/>
	</g>
</g>
<g>
	<g>
		<rect x="277" y="54" width="31" height="174"/>
		<rect x="154" y="54" width="31" height="174"/>
	</g>
	<path d="M431.7,28.8v224h-401v-224H431.7 M462.5-2H-0.2v285.6h462.6V-2L462.5-2z"/>
</g>
</svg>
