<?xml version="1.0" encoding="utf-8"?>
<!-- Generator: Adobe Illustrator 19.2.0, SVG Export Plug-In . SVG Version: 6.00 Build 0)  -->
<svg version="1.1" id="Layer_1" xmlns="http://www.w3.org/2000/svg" xmlns:xlink="http://www.w3.org/1999/xlink" x="0px" y="0px"
	 viewBox="0 0 256 256" style="enable-background:new 0 0 256 256;" xml:space="preserve">
<title>social-twitter</title>
<path d="M255,49.2c-9.5,4.2-19.6,7-29.9,8.2c10.9-6.5,19-16.7,22.9-28.8c-10.2,6.1-21.4,10.3-33.1,12.6c-19.7-21-52.7-22-73.7-2.3
	c-13.5,12.7-19.3,31.7-15.1,49.8c-41.9-2.1-81-21.9-107.4-54.5c-13.8,23.8-6.8,54.3,16.1,69.6c-8.3-0.3-16.4-2.5-23.6-6.5V98
	c0,24.8,17.5,46.2,41.8,51.1c-7.7,2.1-15.7,2.4-23.5,0.9c6.8,21.2,26.4,35.8,48.7,36.2c-18.5,14.5-41.3,22.3-64.7,22.3
	c-4.2,0-8.3-0.2-12.4-0.7c23.8,15.3,51.6,23.4,79.9,23.4c95.9,0,148.3-79.4,148.3-148.3c0-2.3,0-4.5-0.1-6.7
	C239.2,68.8,248,59.7,255,49.2z"/>
</svg>
