<?xml version="1.0" encoding="utf-8"?>
<!-- Generator: Adobe Illustrator 19.2.0, SVG Export Plug-In . SVG Version: 6.00 Build 0)  -->
<svg version="1.1" id="Layer_1" xmlns="http://www.w3.org/2000/svg" xmlns:xlink="http://www.w3.org/1999/xlink" x="0px" y="0px"
	 viewBox="0 0 256 256" style="enable-background:new 0 0 256 256;" xml:space="preserve">
<title>social-facebook</title>
<path d="M238.3,4H17.7C10.1,4,4,10.1,4,17.7l0,0v220.6c0,7.6,6.1,13.7,13.7,13.7h118.7v-96h-32.3v-37.4h32.3V90.9
	c0-32,19.6-49.5,48.1-49.5c9.6,0,19.3,0.5,28.9,1.5v33.5h-19.8c-15.6,0-18.5,7.4-18.5,18.2v23.9h37.1l-4.9,37.4h-32.2v96h63.2
	c7.6,0,13.7-6.1,13.7-13.7l0,0V17.7C252,10.1,245.9,4,238.3,4C238.3,4,238.3,4,238.3,4"/>
</svg>
