<?xml version="1.0" encoding="utf-8"?>
<!-- Generator: Adobe Illustrator 19.2.0, SVG Export Plug-In . SVG Version: 6.00 Build 0)  -->
<svg version="1.1" id="Layer_1" xmlns="http://www.w3.org/2000/svg" xmlns:xlink="http://www.w3.org/1999/xlink" x="0px" y="0px"
	 viewBox="0 0 256 256" style="enable-background:new 0 0 256 256;" xml:space="preserve">
<title>social-instagram</title>
<path d="M127.7,26.1c33.1,0,37,0.1,50.1,0.7c12.1,0.6,18.6,2.6,23,4.3c10.8,4.2,19.3,12.7,23.5,23.5c1.7,4.4,3.7,10.9,4.3,23
	c0.6,13.1,0.7,17,0.7,50.1s-0.1,37-0.7,50.1c-0.6,12.1-2.6,18.6-4.3,23c-4.2,10.8-12.7,19.3-23.5,23.5c-4.4,1.7-10.9,3.7-23,4.3
	c-13.1,0.6-17,0.7-50.1,0.7s-37-0.1-50.1-0.7c-12.1-0.6-18.6-2.6-23-4.3c-10.8-4.2-19.4-12.7-23.5-23.5c-1.7-4.4-3.7-10.9-4.3-23
	c-0.6-13.1-0.7-17-0.7-50.1s0.1-37,0.7-50.1c0.5-12.1,2.6-18.7,4.3-23c4.2-10.8,12.7-19.4,23.5-23.5c4.4-1.7,10.9-3.7,23-4.3
	C90.7,26.2,94.7,26.1,127.7,26.1 M127.7,3.8C94,3.8,89.8,3.9,76.6,4.5c-13.2,0.6-22.2,2.7-30.1,5.8c-16.6,6.4-29.8,19.6-36.2,36.3
	c-3.1,7.9-5.2,16.9-5.8,30.1s-0.7,17.4-0.7,51.1s0.1,37.9,0.7,51.1c0.6,13.2,2.7,22.2,5.8,30.1c6.4,16.6,19.6,29.8,36.2,36.2
	c7.9,3.1,16.9,5.2,30.1,5.8c13.3,0.6,17.4,0.7,51.1,0.7s37.9-0.1,51.1-0.7c13.2-0.6,22.2-2.7,30.1-5.8c16.6-6.4,29.8-19.6,36.2-36.3
	c3.1-7.9,5.2-16.9,5.8-30.1c0.6-13.3,0.7-17.4,0.7-51.1s-0.1-37.9-0.7-51.1c-0.6-13.2-2.7-22.2-5.8-30.1
	c-6.5-16.6-19.7-29.8-36.3-36.2C201,7.3,192,5.2,178.8,4.6C165.5,4,161.4,3.8,127.7,3.8L127.7,3.8L127.7,3.8z"/>
<path d="M127.7,64.1C92.6,64.1,64,92.6,64,127.7c0,35.2,28.5,63.7,63.6,63.7s63.7-28.5,63.7-63.6c0,0,0,0,0,0l0,0
	C191.4,92.6,162.9,64.1,127.7,64.1z M127.7,169.1c-22.8,0-41.3-18.5-41.3-41.3s18.5-41.3,41.3-41.3S169,105,169,127.8l0,0
	C169,150.6,150.5,169.1,127.7,169.1L127.7,169.1L127.7,169.1z"/>
<circle cx="193.9" cy="61.6" r="14.9"/>
</svg>
