<svg xmlns="http://www.w3.org/2000/svg" viewBox="0 0 255 207.3"><title>social-twitter</title><path d="M255,48.45a104.58,104.58,0,0,1-30,8.24,52.47,52.47,0,0,0,23-28.91,104.75,104.75,0,0,1-33.26,12.67,52.36,52.36,0,0,0-89.15,47.72A148.53,148.53,0,0,1,17.74,33.49a52.37,52.37,0,0,0,16.19,69.84,52.1,52.1,0,0,1-23.7-6.53v0.66a52.35,52.35,0,0,0,42,51.3,52.45,52.45,0,0,1-23.63.93,52.37,52.37,0,0,0,48.88,36.38,105,105,0,0,1-65,22.39A106.49,106.49,0,0,1,0,207.74a148.08,148.08,0,0,0,80.22,23.5c96.23,0,148.85-79.72,148.85-148.85q0-3.4-.15-6.77A106.33,106.33,0,0,0,255,48.45Z" transform="translate(0 -23.94)"/></svg>