<svg xmlns="http://www.w3.org/2000/svg" viewBox="0 0 254.98 255"><title>social-instagram</title><path d="M128,23.47c34,0,38.08.13,51.52,0.74,12.43,0.57,19.18,2.65,23.67,4.39a42.23,42.23,0,0,1,24.19,24.19c1.75,4.5,3.83,11.25,4.39,23.67,0.61,13.44.74,17.48,0.74,51.52s-0.13,38.08-.74,51.52c-0.57,12.43-2.65,19.18-4.39,23.67a42.23,42.23,0,0,1-24.19,24.19c-4.5,1.75-11.25,3.83-23.67,4.39-13.44.61-17.48,0.74-51.52,0.74s-38.08-.13-51.52-0.74c-12.43-.57-19.18-2.65-23.67-4.39A42.23,42.23,0,0,1,28.6,203.18c-1.75-4.5-3.83-11.25-4.39-23.67C23.6,166.07,23.47,162,23.47,128s0.13-38.08.74-51.52C24.77,64,26.86,57.29,28.6,52.79A42.23,42.23,0,0,1,52.81,28.6c4.5-1.75,11.25-3.83,23.67-4.39C89.92,23.6,94,23.47,128,23.47m0-23c-34.68,0-39,.15-52.57.76S52.59,4,44.47,7.19A65.22,65.22,0,0,0,7.2,44.48c-3.14,8.09-5.31,17.34-5.92,31S0.51,93.38.51,128s0.15,39,.77,52.57,2.77,22.84,5.93,31a65.19,65.19,0,0,0,37.26,37.27c8.09,3.16,17.34,5.31,31,5.93s17.94,0.76,52.57.76,39-.15,52.57-0.76,22.84-2.77,31-5.93a65.2,65.2,0,0,0,37.27-37.29c3.16-8.09,5.31-17.34,5.93-31s0.76-17.94.76-52.57-0.15-39-.76-52.57-2.77-22.84-5.93-31A65.22,65.22,0,0,0,211.5,7.22c-8.09-3.14-17.34-5.31-31-5.92S162.61,0.52,128,.52h0Z" transform="translate(-0.51 -0.5)"/><path d="M128,62.53A65.47,65.47,0,1,0,193.46,128h0A65.47,65.47,0,0,0,128,62.53Zm0,108a42.5,42.5,0,1,1,42.5-42.5A42.5,42.5,0,0,1,128,170.5h0Z" transform="translate(-0.51 -0.5)"/><circle cx="195.54" cy="59.44" r="15.3"/></svg>