<svg xmlns="http://www.w3.org/2000/svg" viewBox="0 0 404.98 404.98">
  <title>social-logos</title>
  <g>
    <path d="M202.49,112.06c29.45,0,32.94.11,44.57,0.64,10.75,0.49,16.59,2.29,20.48,3.8a36.53,36.53,0,0,1,20.93,20.93c1.51,3.89,3.31,9.73,3.8,20.48,0.53,11.63.64,15.12,0.64,44.57s-0.11,32.94-.64,44.57c-0.49,10.75-2.29,16.59-3.8,20.48a36.53,36.53,0,0,1-20.93,20.93c-3.89,1.51-9.73,3.31-20.48,3.8-11.63.53-15.12,0.64-44.57,0.64s-32.94-.11-44.57-0.64c-10.75-.49-16.59-2.29-20.48-3.8a36.53,36.53,0,0,1-20.93-20.93c-1.51-3.89-3.31-9.73-3.8-20.48-0.53-11.63-.64-15.12-0.64-44.57s0.11-32.94.64-44.57c0.49-10.75,2.29-16.59,3.8-20.48a36.53,36.53,0,0,1,20.94-20.93c3.89-1.51,9.73-3.31,20.48-3.8,11.63-.53,15.12-0.64,44.57-0.64m0-19.87c-30,0-33.71.13-45.48,0.66s-19.76,2.4-26.78,5.13A56.42,56.42,0,0,0,98,130.24c-2.72,7-4.59,15-5.12,26.78s-0.67,15.52-.67,45.48,0.13,33.71.67,45.48,2.4,19.76,5.13,26.78A56.4,56.4,0,0,0,130.24,307c7,2.73,15,4.59,26.78,5.13s15.52,0.66,45.48.66,33.71-.13,45.48-0.66,19.76-2.4,26.78-5.13A56.4,56.4,0,0,0,307,274.74c2.73-7,4.59-15,5.13-26.78s0.66-15.52.66-45.48-0.13-33.71-.66-45.48-2.4-19.76-5.13-26.78A56.42,56.42,0,0,0,274.74,98c-7-2.72-15-4.59-26.78-5.12s-15.52-.67-45.48-0.67h0Z"/>
    <path d="M202.49,145.85a56.64,56.64,0,1,0,56.64,56.64h0A56.64,56.64,0,0,0,202.49,145.85Zm0,93.41a36.77,36.77,0,1,1,36.77-36.77A36.77,36.77,0,0,1,202.49,239.26Z"/>
    <circle cx="261.37" cy="143.61" r="13.24"/>
  </g>
</svg>
