<svg xmlns="http://www.w3.org/2000/svg" viewBox="0 0 404.98 404.98">
  <title>social</title>
  <path d="M339.18,117.7A112.12,112.12,0,0,1,307,126.53a56.25,56.25,0,0,0,24.66-31A112.3,112.3,0,0,1,296,109.11a56.14,56.14,0,0,0-95.58,51.16,159.24,159.24,0,0,1-115.61-58.6,56.15,56.15,0,0,0,17.36,74.88,55.86,55.86,0,0,1-25.41-7c0,0.23,0,.47,0,0.71a56.12,56.12,0,0,0,45,55,56.23,56.23,0,0,1-25.33,1,56.15,56.15,0,0,0,52.4,39,112.54,112.54,0,0,1-69.66,24,114.17,114.17,0,0,1-13.38-.78,158.76,158.76,0,0,0,86,25.2c103.17,0,159.58-85.47,159.58-159.59q0-3.65-.16-7.26A114,114,0,0,0,339.18,117.7Z"/>
</svg>
