<?xml version="1.0" encoding="UTF-8"?><!DOCTYPE svg PUBLIC "-//W3C//DTD SVG 1.1//EN" "http://www.w3.org/Graphics/SVG/1.1/DTD/svg11.dtd"><svg xmlns="http://www.w3.org/2000/svg"><symbol id="light-the-night" viewBox="0 0 560.8 574.3"><g fill-rule="evenodd" clip-rule="evenodd"><path d="M347.4 18.4c-.1 64.6-.2 129.3-.2 193.9-4.7.9-9.4 1.8-14.2 2.6V20.7c-9 1.4-18.1 2.7-27.1 4.1-6 .9-9.1-5.6-6.2-10.3 3.1-5.2 10.3-4.4 17.3-5.8 14.8-2.3 29.6-4.6 44.4-7 5.5-1.1 16.1-3.8 19.2.5 9.2 13.1-24.6 15.7-33.2 16.2zM288.8 222.7c-4.8.7-9.6 1.4-14.4 2.2v-87.1c-16.5 2.5-33 5-49.4 7.4v85.4c-4.9.5-9.8 1-14.6 1.4V74.1c.1-14.6.2-29.3.2-43.9.7-2.6 3.1-5.4 5.5-6.2 11.8-4.2 8.9 14.7 8.9 23.5v83.3c16.5-2.5 33-5 49.4-7.4V38.7c0-10.1-2.1-28 10.1-24.5 5 1.5 4.3 7.2 4.3 13.7v194.8zM158.3 29.5c18.1-.3 29.3 8.4 34.1 21.4 2 5.3 4.4 15.6-.7 19.4-12.1 9.1-11-10.7-14.4-16.3-5.8-9.6-22.4-12.8-33.8-6-18.2 10.8-15.8 27.5-15.8 55.7v90c0 14.9-1.8 33.8 1.4 46.3-5 .5-10.1 1-15.1 1.4-1.8-12.9-.7-29.1-.7-43.2v-80.9c0-19-2.6-44.3 3.4-58.1 5.3-12.3 15.5-22 28.1-26.9 3.9-1.6 8.9-1.1 13.5-2.8zM97.6 242.8c-4.8.5-9.6 1-14.4 1.4V90.8 49.3c.7-2.9 3.6-5.8 6.5-6.5 3.7-.9 6.6 1.5 7.4 3.6 1.1 2.8.5 7.9.5 11.5V242.8zM68.8 262.7c.1 1.8.2 3.7.2 5.5-4.6-2.6-12 4.9-15.1 7-2.3 1.7-4.6 3.4-7 5-3.1.4-6.2.8-9.4 1.2-12 2.3-25.3 3.3-31.9-5C-2.1 266.6.3 244.3.3 227V106.5 62.1c.7-2.9 3.1-5.6 5.8-6.5 4-1.4 7.5 1.2 8.4 3.8.1 14.3.2 28.6.2 43v147.4c0 4.3-.7 10.2.7 13.4 2.3 5.3 8.8 6.4 15.8 5 12.6-1.8 25.1-3.6 37.6-5.5z"/><path d="M187.6 136.3c9.3 0 7.2 9.7 7.2 18.7v55.9c0 5.9.7 20.6-2.4 22.8-4.9.5-9.8 1-14.6 1.4 3.1-7.6 2.6-19.2 2.6-30.2v-53c-6.7 1-29.8 7.9-27.4-4.3 2.4-12 24.2-7.1 34.6-11.3zM478 208c11.4 3.7 20.4 8.9 29.5 14.6 2.9 1.8 5.8 3.7 8.6 5.5-.1 4.8-3.4 8.5-5.3 11.8-3.4 5.8-6.4 11.6-9.1 18-1 2.3-2.9 5.3-2.2 9.1 2.2 11.7 6.9 22.2 11 32.6 1.3 3.4 5.3 10.2 4.3 14.2-1.9 2.7-6.4 3.8-9.4 5.5-9.8 5.7-21.3 10.5-32.9 14.2-4.2 1.3-12.3 4.3-15.8 1.9-1.1-3.3-3.2-14.6.5-16.8 4.4-1.9 17.6-1 19.9-4.3 2.3-3.6.7-23 .7-29 .2-25.8.2-51.5.2-77.3z"/><path d="M472.9 222.9c-1.3-8.3 3.8-26.7 1-31.9-.9-2-2.5-2.3-5-2.6-21.8 5-43.7 9.9-65.5 14.9-43.6 10.9-89.4 16.9-135.8 25.4-28 3-56 5.9-84 8.9-27.8 2.6-55.7 5.3-83.5 7.9-6.3 1-25.3.4-27.8 4.1-3 4.3.7 27.7.2 35.8-1.7 27-2 56.5-1.9 85.7 5.1 3 17.8 1.6 24.5.5 20.5-1.6 41-3.2 61.4-4.8 22.9-2.4 45.8-4.8 68.6-7.2 14.9-2 29.8-4 44.6-6 40.6-8 81.4-12.7 120-22.3 21.3-5.3 42.6-8.9 63.4-14.2 5.7-1.4 19.6-3 21.8-7.2.1-8.4.2-16.8.2-25.2 0-20.8.7-43-2.2-61.8zm-260.4 67.4c-3 .4-5.9.8-8.9 1.2v-8.6c-10.9 1.6-21.8 3.2-32.6 4.8v29.8c5.8-.9 11.7-1.8 17.5-2.6v8.9c-14.8 2.2-29.6 4.3-44.4 6.5v-8.6c6-.9 12-1.8 18-2.6v-29.8c-10.9 1.6-21.8 3.2-32.6 4.8v8.9c-3 .4-5.9.8-8.9 1.2v-17.5c30.4-4.6 60.8-9.3 91.2-13.9.2.1.5.2.7.2v17.3zm108.3-25.4c-5.8.9-11.5 1.8-17.3 2.6v29.8c5.8-.8 11.5-1.6 17.3-2.4v8.6c-14.6 2.2-29.3 4.3-43.9 6.5v-8.6c5.8-.8 11.5-1.6 17.3-2.4v-13c-16.2 2.4-32.5 4.8-48.7 7.2v13c5.8-.9 11.7-1.8 17.5-2.6v8.6c-14.7 2.2-29.4 4.5-44.2 6.7v-8.6c5.8-.9 11.7-1.8 17.5-2.6v-29.8c-5.8.8-11.7 1.6-17.5 2.4v-8.4c14.7-2.2 29.4-4.5 44.2-6.7v8.6c-5.7.9-11.4 1.8-17 2.6h-.5v8.9c16.2-2.4 32.3-4.8 48.5-7.2.1-3 .2-6.1.2-9.1-5.8.9-11.5 1.8-17.3 2.6V263c14.6-2.2 29.1-4.5 43.7-6.7h.2v8.6zm101.7 23.3c-31.4 4.7-62.9 9.4-94.3 14.2v-8.9c5.8-.9 11.7-1.8 17.5-2.6v-29.3c-5.8.9-11.5 1.8-17.3 2.6h-.2v-8.9c31.4-4.7 62.7-9.4 94.1-14.2v19c-2.9.5-5.8 1-8.6 1.4v-10.3c-19.6 3-39.2 5.9-58.8 8.9v8.9c9.9-1.4 19.8-2.9 29.8-4.3v-5.3c3-.4 5.9-.8 8.9-1.2v19c-2.9.5-5.8 1-8.6 1.4h-.2v-5c-9.9 1.4-19.8 2.9-29.8 4.3v11.5c19.6-3 39.2-5.9 58.8-8.9v-10.1c3-.5 5.9-1 8.9-1.4-.2 6.4-.2 12.8-.2 19.2z"/><path d="M66.6 270.2c1.5 1.5.5 20.1.5 25 .1 26.6.2 53.3.2 79.9 2 3.3 16.6-.3 20.4-.7.1.2.2.3.2.5 1.3 5.8 1 14.1-1.7 18-20 4.2-43.9-.5-59.8-4.8 1-6.5 5.1-11.7 7.4-17 3.4-7.4 6.7-14.9 10.1-22.3 1.7-4 5.8-9.9 4.6-16.1-2.3-11-22.1-21.5-22.6-30.5 7.4-5.5 13.4-13.1 20.9-18.7 6.3-4.8 13.9-8.3 19.8-13.3zM526.5 304v199.7c0 4.2.6 9.9-.7 13-1.1 2.4-4 4.8-7.2 5-2.8.3-5.5-1.9-6.2-3.8-.1-14.3-.2-28.6-.2-43V319.1c11.6-5.7 1-17.7-1.2-27.1 12-1.8 24-3.7 36-5.5 4.7-.9 10.6-1.8 13 1.7 2.8 4.2-1 9.9-4.1 11.3-9.9 1.5-19.7 3-29.4 4.5zM403.6 330.9c1.3 1.4.5 18.4.5 21.8v63.6c16.5-2.5 33-5 49.4-7.4.1-24.9.2-49.8.2-74.6.8 7.4 8.8 4.2 14.2 3.4v185.8c-2 5.5-11.3 11.6-14.2 2.9-.1-34.3-.2-68.6-.2-103-16.5 2.5-33 5-49.4 7.4V516c0 9.9 1.4 28.7-10.8 23.8-1.5-.6-3.2-2.4-3.6-4.1v-41.3-119.3-30.2c0-2.7-.9-9.2.5-10.8 4.4-1.1 8.9-2.2 13.4-3.2zM371.6 337.6c4.9 4.2 2.5 21.3-6.5 20.2-6.5-.8-6.5-11.3-8.2-17h.5c4.8-1.1 9.5-2.1 14.2-3.2zM307.1 349.9h1.2c-2.6 14.2-1.7 34.1-1.7 50.9V487c0 21.1-3.3 40.8 10.3 49 9 5.4 22.2 2 29-2.6 5.9-4 10.5-9.6 12.7-17.3 2-6.9.7-17.7.7-25.9v-52.6h-.2c-6.7 2-30.9 7.4-26.9-5.3 2.7-8.6 20.4-7.8 29.8-9.6 4.9-1 10-1 11.5 3.1.1 14.5.2 29 .2 43.4 0 39.8 2.9 60.6-22.3 76.6-6.4 4.1-16.4 9.6-28.1 7.7-14.3-2.3-24.1-8.9-28.8-20.6-3.9-9.6-2.4-26-2.4-39.1v-78.5-45.4c0-4-.7-15.1 1-17.3 4.7-1 9.4-1.9 14-2.7zM276.6 355.1v187c0 3.7.7 8.9-.5 11.8-1 2.6-3.7 5-6.7 5.5-3.4.6-6.2-1.8-7-3.8-.1-14.2-.2-28.5-.2-42.7V357.1c4.8-.7 9.6-1.3 14.4-2zM245.9 359.5v155c-.1 14.6-.2 29.1-.2 43.7-.9 2.4-3.3 4.7-5.8 5.5-7.2 2.2-8.2-4.6-9.6-9.1-3-9.3-6.1-18.6-9.1-27.8-14.1-43.2-28.2-86.4-42.2-129.6h-.2V534c0 11.7 4.3 43.6-9.8 40.1-5.1-1.3-4.6-7-4.6-13.4v-35.3-156.7c6.9-.6 13.8-1.1 20.6-1.7 15.4 47.7 30.9 95.4 46.3 143h.2c.1-49.6.2-99.2.2-148.8 4.7-.6 9.5-1.2 14.2-1.7z"/></g></symbol><symbol id="logo-wide" viewBox="0 0 960 283.6"><path d="M532.6 108.3c0 9.8-8.1 17.6-18.1 17.6-10.1 0-18.1-7.8-18.1-17.6 0-1.7 1.4-3.1 3.1-3.1 1.7 0 3.1 1.4 3.1 3.1 0 6.4 5.2 11.5 11.9 11.5 6.6 0 11.9-5.2 11.9-11.5V84.7c0-6.2-5.3-12.3-12.3-14.4-10.5-3.2-16.9-11.1-16.9-19.6v-8.5c0-9.4 7.8-16.9 17.4-16.9 9.7 0 17.4 7.6 17.4 16.9 0 1.7-1.4 3.1-3.1 3.1s-3.1-1.4-3.1-3.1c0-6-4.9-10.8-11.2-10.8-6.2 0-11.2 4.8-11.2 10.8v8.5c0 6 5 11.5 12.6 13.7 9.9 3.2 16.7 11.3 16.7 20.3v23.6zM562.4 126c-9.5 0-17.4-7.6-17.4-16.9v-67c0-9.4 7.8-16.9 17.4-16.9 9.5 0 17.4 7.6 17.4 16.9V109c0 9.4-7.8 17-17.4 17zm0-94.7c-6.2 0-11.2 4.8-11.2 10.8V109c0 6 5 10.8 11.2 10.8 6.2 0 11.2-4.8 11.2-10.8V42.1c0-6-5-10.8-11.2-10.8zM610.9 119.8c6.3 0 10.5-4.6 10.5-11.5V29.6c0-1.7 1.4-3.1 3.1-3.1 1.7 0 3.1 1.4 3.1 3.1v78.7c0 10.6-6.7 17.6-16.7 17.6s-16.7-7-16.7-17.6V29.6c0-1.7 1.4-3.1 3.1-3.1s3.1 1.4 3.1 3.1v78.7c0 6.9 4.2 11.5 10.5 11.5zM674.6 29.6c0 1.7-1.4 3.1-3.1 3.1H660v88.8c0 1.7-1.4 3.1-3.1 3.1-1.7 0-3.1-1.4-3.1-3.1V32.7h-11.5c-1.7 0-3.1-1.4-3.1-3.1s1.4-3.1 3.1-3.1h29.1c1.8.1 3.2 1.5 3.2 3.1zM713.5 72.5V29.6c0-1.7 1.4-3.1 3.1-3.1s3.1 1.4 3.1 3.1v91.9c0 1.7-1.4 3.1-3.1 3.1s-3.1-1.4-3.1-3.1V78.7h-21v42.8c0 1.7-1.4 3.1-3.1 3.1-1.7 0-3.1-1.4-3.1-3.1V29.6c0-1.7 1.4-3.1 3.1-3.1 1.7 0 3.1 1.4 3.1 3.1v42.8h21zM766.8 29.6c0 1.7-1.4 3.1-3.1 3.1h-11.5v88.8c0 1.7-1.4 3.1-3.1 3.1-1.7 0-3.1-1.4-3.1-3.1V32.7h-11.5c-1.7 0-3.1-1.4-3.1-3.1s1.4-3.1 3.1-3.1h29.1c1.8.1 3.2 1.5 3.2 3.1zM794.5 126c-9.5 0-17.4-7.6-17.4-16.9v-67c0-9.4 7.8-16.9 17.4-16.9s17.4 7.6 17.4 16.9V109c0 9.4-7.9 17-17.4 17zm0-94.7c-6.2 0-11.2 4.8-11.2 10.8V109c0 6 5 10.8 11.2 10.8s11.2-4.8 11.2-10.8V42.1c0-6-5-10.8-11.2-10.8zM862.2 29.6v91.9c0 1.7-1.4 3.1-3.1 3.1-1.4 0-2.5-1-2.9-2.2l-11.9-37.5-11.9 37.5c-.4 1.3-1.5 2.2-2.9 2.2-1.7 0-3.1-1.4-3.1-3.1V29.6c0-1.7 1.4-3.1 3.1-3.1 1.7 0 3.1 1.4 3.1 3.1v72.7l8.7-27.3c.6-2 1.8-2.5 3.1-2.5s2.5.6 3.1 2.5l8.7 27.3V29.6c0-1.7 1.4-3.1 3.1-3.1 1.5.1 2.9 1.5 2.9 3.1zM911.4 29.6v91.9c0 1.7-1.4 3.1-3.1 3.1-1.4 0-2.5-.8-2.9-2.1l-22.5-72.7v71.7c0 1.7-1.4 3.1-3.1 3.1s-3.1-1.4-3.1-3.1V29.6c0-1.7 1.4-3.1 3.1-3.1 1.4 0 2.5.8 2.9 2.1l22.5 72.7V29.6c0-1.7 1.4-3.1 3.1-3.1 1.7.1 3.1 1.5 3.1 3.1zM960 108.3c0 9.8-8.1 17.6-18.1 17.6-10.1 0-18.1-7.8-18.1-17.6 0-1.7 1.4-3.1 3.1-3.1 1.7 0 3.1 1.4 3.1 3.1 0 6.4 5.2 11.5 11.9 11.5 6.6 0 11.9-5.2 11.9-11.5V84.7c0-6.2-5.3-12.3-12.3-14.4-10.5-3.3-16.9-11.1-16.9-19.7v-8.5c0-9.4 7.8-16.9 17.4-16.9 9.7 0 17.4 7.6 17.4 16.9 0 1.7-1.4 3.1-3.1 3.1-1.7 0-3.1-1.4-3.1-3.1 0-6-4.9-10.8-11.2-10.8-6.2 0-11.2 4.8-11.2 10.8v8.5c0 6 5 11.5 12.6 13.7 9.9 3.2 16.7 11.3 16.7 20.3v23.7zM532.1 239.5c0 9.4-7.7 16.9-17.4 16.9-9.5 0-17.4-7.6-17.4-16.9v-66.9c0-9.4 7.8-16.9 17.4-16.9 9.7 0 17.4 7.6 17.4 16.9 0 1.7-1.4 3.1-3.1 3.1s-3.1-1.4-3.1-3.1c0-6-4.9-10.8-11.2-10.8-6.2 0-11.2 4.8-11.2 10.8v66.9c0 6 5 10.8 11.2 10.8 6.3 0 11.2-4.8 11.2-10.8 0-1.7 1.4-3.1 3.1-3.1s3.1 1.5 3.1 3.1zM548.5 255.1c-1.7 0-3.1-1.4-3.1-3.1v-78.7c0-9.8 7.8-17.6 16.7-17.6 8.8 0 16.7 7.8 16.7 17.6V252c0 1.7-1.4 3.1-3.1 3.1s-3.1-1.4-3.1-3.1v-42.8h-21V252c0 1.7-1.4 3.1-3.1 3.1zm24.1-81.8c0-6.6-4.6-11.5-10.5-11.5s-10.5 4.9-10.5 11.5V203h21v-29.7zM596.4 255.1c-1.7 0-3.1-1.4-3.1-3.1v-91.9c0-1.7 1.4-3.1 3.1-3.1h18.8c8.7 0 16 7.4 16 16.4 0 5.3-2.5 10.1-7.3 13.2 4.8 2.8 7.3 7.4 7.3 12.7V252c0 1.7-1.4 3.1-3.1 3.1s-3.1-1.4-3.1-3.1v-52.6c-.1-5.3-4.2-9.5-9.8-9.5h-15.7V252c-.1 1.7-1.5 3.1-3.1 3.1zm3-71.4h15.7c5.3 0 9.8-4.6 9.8-10.2s-4.5-10.2-9.8-10.2h-15.7v20.4zM651.6 231.8V244c0 2.7 2.4 4.9 5 4.9h10.1c1.7 0 3.1 1.4 3.1 3.1 0 1.7-1.4 3.1-3.1 3.1h-10.1c-6.2 0-11.2-4.9-11.2-11.1v-75.9c0-6.2 5-11.1 11.2-11.1h10.1c1.7 0 3.1 1.4 3.1 3.1 0 1.7-1.4 3.1-3.1 3.1h-10.1c-2.7 0-5 2.2-5 4.9v57.5h15.1c1.7 0 3.1 1.4 3.1 3.1s-1.4 3.1-3.1 3.1h-15.1zM739.7 239.5c0 9.4-7.7 16.9-17.4 16.9-9.5 0-17.4-7.6-17.4-16.9v-66.9c0-9.4 7.8-16.9 17.4-16.9 9.7 0 17.4 7.6 17.4 16.9 0 1.7-1.4 3.1-3.1 3.1s-3.1-1.4-3.1-3.1c0-6-4.9-10.8-11.2-10.8-6.2 0-11.2 4.8-11.2 10.8v66.9c0 6 5 10.8 11.2 10.8 6.3 0 11.2-4.8 11.2-10.8 0-1.7 1.4-3.1 3.1-3.1s3.1 1.5 3.1 3.1zM759.2 231.8V244c0 2.7 2.4 4.9 5 4.9h10.1c1.7 0 3.1 1.4 3.1 3.1 0 1.7-1.4 3.1-3.1 3.1h-10.1c-6.2 0-11.2-4.9-11.2-11.1v-75.9c0-6.2 5-11.1 11.2-11.1h10.1c1.7 0 3.1 1.4 3.1 3.1 0 1.7-1.4 3.1-3.1 3.1h-10.1c-2.7 0-5 2.2-5 4.9v57.5h15.1c1.7 0 3.1 1.4 3.1 3.1s-1.4 3.1-3.1 3.1h-15.1zM825.8 160.1V252c0 1.7-1.4 3.1-3.1 3.1-1.4 0-2.5-.8-2.9-2.1l-22.5-72.7V252c0 1.7-1.4 3.1-3.1 3.1-1.7 0-3.1-1.4-3.1-3.1v-91.9c0-1.7 1.4-3.1 3.1-3.1 1.4 0 2.5.8 2.9 2.1l22.5 72.7v-71.7c0-1.7 1.4-3.1 3.1-3.1s3.1 1.5 3.1 3.1zM872.9 160.1c0 1.7-1.4 3.1-3.1 3.1h-11.5V252c0 1.7-1.4 3.1-3.1 3.1s-3.1-1.4-3.1-3.1v-88.8h-11.5c-1.7 0-3.1-1.4-3.1-3.1 0-1.7 1.4-3.1 3.1-3.1h29.1c1.8.1 3.2 1.5 3.2 3.1zM890.1 231.8V244c0 2.7 2.4 4.9 5 4.9h10.1c1.7 0 3.1 1.4 3.1 3.1 0 1.7-1.4 3.1-3.1 3.1h-10.1c-6.2 0-11.2-4.9-11.2-11.1v-75.9c0-6.2 5-11.1 11.2-11.1h10.1c1.7 0 3.1 1.4 3.1 3.1 0 1.7-1.4 3.1-3.1 3.1h-10.1c-2.7 0-5 2.2-5 4.9v57.5h15.1c1.7 0 3.1 1.4 3.1 3.1s-1.4 3.1-3.1 3.1h-15.1zM925 255.1c-1.7 0-3.1-1.4-3.1-3.1v-91.9c0-1.7 1.4-3.1 3.1-3.1h18.8c8.7 0 16 7.4 16 16.4 0 5.3-2.5 10.1-7.3 13.2 4.8 2.8 7.3 7.4 7.3 12.7V252c0 1.7-1.4 3.1-3.1 3.1s-3.1-1.4-3.1-3.1v-52.6c-.1-5.3-4.2-9.5-9.8-9.5h-15.7V252c0 1.7-1.4 3.1-3.1 3.1zm3.1-71.4h15.7c5.3 0 9.8-4.6 9.8-10.2s-4.5-10.2-9.8-10.2h-15.7v20.4z"/><g><path d="M277 54h31v174h-31zM154 54h31v174h-31z"/><path d="M431.7 28.8v224h-401v-224h401M462.5-2H-.2v285.6h462.6V-2h.1z"/></g></symbol><symbol id="logo" viewBox="0 0 430.3 512"><path d="M33.3 374.4c0 9.1-7.5 16.4-16.8 16.4-9.4 0-16.8-7.3-16.8-16.4 0-1.6 1.3-2.9 2.9-2.9s2.9 1.3 2.9 2.9c0 6 4.8 10.7 11.1 10.7 6.1 0 11.1-4.8 11.1-10.7v-22c0-5.7-4.9-11.4-11.4-13.4C6.5 336 .6 328.7.6 320.8v-7.9c0-8.7 7.3-15.7 16.1-15.7 9 0 16.1 7 16.1 15.7 0 1.6-1.3 2.9-2.9 2.9s-2.9-1.3-2.9-2.9c0-5.6-4.6-10-10.4-10-5.7 0-10.4 4.4-10.4 10v7.9c0 5.6 4.7 10.7 11.7 12.7 9.2 3 15.5 10.5 15.5 18.9v22zM61 390.8c-8.8 0-16.1-7-16.1-15.7v-62.2c0-8.7 7.3-15.7 16.1-15.7s16.1 7 16.1 15.7v62.2c0 8.7-7.3 15.7-16.1 15.7zm0-87.9c-5.7 0-10.4 4.4-10.4 10v62.2c0 5.6 4.7 10 10.4 10s10.4-4.4 10.4-10v-62.2c0-5.6-4.7-10-10.4-10zM106 385.1c5.9 0 9.8-4.3 9.8-10.7v-73.1c0-1.6 1.3-2.9 2.9-2.9 1.6 0 2.9 1.3 2.9 2.9v73.1c0 9.9-6.2 16.4-15.5 16.4s-15.5-6.5-15.5-16.4v-73.1c0-1.6 1.3-2.9 2.9-2.9 1.6 0 2.9 1.3 2.9 2.9v73.1c-.2 6.4 3.7 10.7 9.6 10.7zM165.2 301.3c0 1.6-1.3 2.9-2.9 2.9h-10.7v82.5c0 1.6-1.3 2.9-2.9 2.9-1.6 0-2.9-1.3-2.9-2.9v-82.5h-10.7c-1.6 0-2.9-1.3-2.9-2.9s1.3-2.9 2.9-2.9h27.1c1.7 0 3 1.3 3 2.9zM201.3 341.1v-39.8c0-1.6 1.3-2.9 2.9-2.9 1.6 0 2.9 1.3 2.9 2.9v85.3c0 1.6-1.3 2.9-2.9 2.9-1.6 0-2.9-1.3-2.9-2.9v-39.8h-19.5v39.8c0 1.6-1.3 2.9-2.9 2.9s-2.9-1.3-2.9-2.9v-85.3c0-1.6 1.3-2.9 2.9-2.9s2.9 1.3 2.9 2.9v39.8h19.5zM250.8 301.3c0 1.6-1.3 2.9-2.9 2.9h-10.7v82.5c0 1.6-1.3 2.9-2.9 2.9s-2.9-1.3-2.9-2.9v-82.5h-10.7c-1.6 0-2.9-1.3-2.9-2.9s1.3-2.9 2.9-2.9H248c1.5 0 2.8 1.3 2.8 2.9zM276.6 390.8c-8.8 0-16.1-7-16.1-15.7v-62.2c0-8.7 7.3-15.7 16.1-15.7s16.1 7 16.1 15.7v62.2c0 8.7-7.3 15.7-16.1 15.7zm0-87.9c-5.7 0-10.4 4.4-10.4 10v62.2c0 5.6 4.7 10 10.4 10s10.4-4.4 10.4-10v-62.2c0-5.6-4.7-10-10.4-10zM339.4 301.3v85.3c0 1.6-1.3 2.9-2.9 2.9-1.3 0-2.3-.9-2.7-2.1l-11.1-34.9-11.1 34.9c-.4 1.2-1.4 2.1-2.7 2.1-1.6 0-2.9-1.3-2.9-2.9v-85.3c0-1.6 1.3-2.9 2.9-2.9s2.9 1.3 2.9 2.9v67.5l8.1-25.4c.5-1.8 1.7-2.3 2.9-2.3s2.3.5 2.9 2.3l8.1 25.4v-67.5c0-1.6 1.3-2.9 2.9-2.9s2.7 1.3 2.7 2.9zM385.2 301.3v85.3c0 1.6-1.3 2.9-2.9 2.9-1.3 0-2.3-.8-2.7-2L358.7 320v66.6c0 1.6-1.3 2.9-2.9 2.9s-2.9-1.3-2.9-2.9v-85.3c0-1.6 1.3-2.9 2.9-2.9 1.3 0 2.3.8 2.7 2l20.9 67.5v-66.6c0-1.6 1.3-2.9 2.9-2.9 1.6 0 2.9 1.3 2.9 2.9zM430.3 374.4c0 9.1-7.5 16.4-16.8 16.4-9.4 0-16.8-7.3-16.8-16.4 0-1.6 1.3-2.9 2.9-2.9 1.6 0 2.9 1.3 2.9 2.9 0 6 4.8 10.7 11.1 10.7 6.1 0 11.1-4.8 11.1-10.7v-22c0-5.7-4.9-11.4-11.4-13.4-9.8-3-15.7-10.3-15.7-18.2v-7.9c0-8.7 7.3-15.7 16.1-15.7 9 0 16.1 7 16.1 15.7 0 1.6-1.3 2.9-2.9 2.9s-2.9-1.3-2.9-2.9c0-5.6-4.6-10-10.4-10-5.7 0-10.4 4.4-10.4 10v7.9c0 5.6 4.7 10.7 11.7 12.7 9.2 3 15.5 10.5 15.5 18.9v22zM32.7 496.3c0 8.7-7.2 15.7-16.1 15.7-8.8 0-16.1-7-16.1-15.7v-62.2c0-8.7 7.3-15.7 16.1-15.7 9 0 16.1 7 16.1 15.7 0 1.6-1.3 2.9-2.9 2.9s-2.9-1.3-2.9-2.9c0-5.6-4.6-10-10.4-10-5.7 0-10.4 4.4-10.4 10v62.2c0 5.6 4.7 10 10.4 10 5.9 0 10.4-4.4 10.4-10 0-1.6 1.3-2.9 2.9-2.9s2.9 1.3 2.9 2.9zM48 510.7c-1.6 0-2.9-1.3-2.9-2.9v-73.1c0-9.1 7.3-16.4 15.5-16.4s15.5 7.3 15.5 16.4v73.1c0 1.6-1.3 2.9-2.9 2.9-1.6 0-2.9-1.3-2.9-2.9V468H50.9v39.8c0 1.6-1.3 2.9-2.9 2.9zm22.4-75.9c0-6.1-4.3-10.7-9.8-10.7s-9.8 4.6-9.8 10.7v27.6h19.5v-27.6zM92.5 510.7c-1.6 0-2.9-1.3-2.9-2.9v-85.3c0-1.6 1.3-2.9 2.9-2.9h17.4c8.1 0 14.8 6.9 14.8 15.2 0 4.9-2.3 9.4-6.8 12.2 4.4 2.6 6.8 6.9 6.8 11.8v48.9c0 1.6-1.3 2.9-2.9 2.9-1.6 0-2.9-1.3-2.9-2.9V459c-.1-4.9-3.9-8.8-9.1-8.8H95.3V508c0 1.4-1.3 2.7-2.8 2.7zm2.8-66.3h14.6c4.9 0 9.1-4.3 9.1-9.5s-4.2-9.5-9.1-9.5H95.3v19zM143.8 489.2v11.3c0 2.5 2.2 4.6 4.7 4.6h9.4c1.6 0 2.9 1.3 2.9 2.9s-1.3 2.9-2.9 2.9h-9.4c-5.7 0-10.4-4.6-10.4-10.3V430c0-5.7 4.7-10.3 10.4-10.3h9.4c1.6 0 2.9 1.3 2.9 2.9s-1.3 2.9-2.9 2.9h-9.4c-2.5 0-4.7 2.1-4.7 4.6v53.5h14c1.6 0 2.9 1.3 2.9 2.9s-1.3 2.9-2.9 2.9h-14zM225.6 496.3c0 8.7-7.2 15.7-16.1 15.7-8.8 0-16.1-7-16.1-15.7v-62.2c0-8.7 7.3-15.7 16.1-15.7 9 0 16.1 7 16.1 15.7 0 1.6-1.3 2.9-2.9 2.9-1.6 0-2.9-1.3-2.9-2.9 0-5.6-4.6-10-10.4-10-5.7 0-10.4 4.4-10.4 10v62.2c0 5.6 4.7 10 10.4 10 5.9 0 10.4-4.4 10.4-10 0-1.6 1.3-2.9 2.9-2.9 1.6 0 2.9 1.3 2.9 2.9zM243.8 489.2v11.3c0 2.5 2.2 4.6 4.7 4.6h9.4c1.6 0 2.9 1.3 2.9 2.9s-1.3 2.9-2.9 2.9h-9.4c-5.7 0-10.4-4.6-10.4-10.3V430c0-5.7 4.7-10.3 10.4-10.3h9.4c1.6 0 2.9 1.3 2.9 2.9s-1.3 2.9-2.9 2.9h-9.4c-2.5 0-4.7 2.1-4.7 4.6v53.5h14c1.6 0 2.9 1.3 2.9 2.9s-1.3 2.9-2.9 2.9h-14zM305.6 422.5v85.3c0 1.6-1.3 2.9-2.9 2.9-1.3 0-2.3-.8-2.7-2l-20.9-67.5v66.6c0 1.6-1.3 2.9-2.9 2.9s-2.9-1.3-2.9-2.9v-85.3c0-1.6 1.3-2.9 2.9-2.9 1.3 0 2.3.8 2.7 2l20.9 67.5v-66.6c0-1.6 1.3-2.9 2.9-2.9s2.9 1.4 2.9 2.9zM349.4 422.5c0 1.6-1.3 2.9-2.9 2.9h-10.7v82.5c0 1.6-1.3 2.9-2.9 2.9-1.6 0-2.9-1.3-2.9-2.9v-82.5h-10.7c-1.6 0-2.9-1.3-2.9-2.9s1.3-2.9 2.9-2.9h27.1c1.7.1 3 1.4 3 2.9zM365.4 489.2v11.3c0 2.5 2.2 4.6 4.7 4.6h9.4c1.6 0 2.9 1.3 2.9 2.9s-1.3 2.9-2.9 2.9h-9.4c-5.7 0-10.4-4.6-10.4-10.3V430c0-5.7 4.7-10.3 10.4-10.3h9.4c1.6 0 2.9 1.3 2.9 2.9s-1.3 2.9-2.9 2.9h-9.4c-2.5 0-4.7 2.1-4.7 4.6v53.5h14c1.6 0 2.9 1.3 2.9 2.9s-1.3 2.9-2.9 2.9h-14zM397.8 510.7c-1.6 0-2.9-1.3-2.9-2.9v-85.3c0-1.6 1.3-2.9 2.9-2.9h17.4c8.1 0 14.8 6.9 14.8 15.2 0 4.9-2.3 9.4-6.8 12.2 4.4 2.6 6.8 6.9 6.8 11.8v48.9c0 1.6-1.3 2.9-2.9 2.9s-2.9-1.3-2.9-2.9V459c-.1-4.9-3.9-8.8-9.1-8.8h-14.6V508c.2 1.4-1.1 2.7-2.7 2.7zm2.9-66.3h14.6c4.9 0 9.1-4.3 9.1-9.5s-4.2-9.5-9.1-9.5h-14.6v19z"/><g><path d="M258 52h29v161h-29zM143 52h29v161h-29z"/><path d="M401.3 28.2v208.1H28.8V28.2h372.5M430-.5H.1v265.4H430V-.5z"/></g></symbol></svg>